<?xml version="1.0" encoding="UTF-8"?>
<!-- Created with Inkscape (http://www.inkscape.org/) -->
<svg width="52.917mm" height="52.917mm" version="1.1" viewBox="0 0 52.917 52.917" xmlns="http://www.w3.org/2000/svg">
 <defs>
  <clipPath id="clipPath5910">
   <rect x="109.93" y="-453.61" width="52.917" height="52.917" fill="#cdd2da" stroke-linecap="round" stroke-width=".41404"/>
  </clipPath>
  <clipPath id="clipPath5906">
   <rect x="109.93" y="-453.61" width="52.917" height="52.917" fill="#cdd2da" stroke-linecap="round" stroke-width=".41404"/>
  </clipPath>
  <clipPath id="clipPath5902">
   <rect x="109.93" y="-453.61" width="52.917" height="52.917" fill="#cdd2da" stroke-linecap="round" stroke-width=".41404"/>
  </clipPath>
  <clipPath id="clipPath5898">
   <rect x="109.93" y="-453.61" width="52.917" height="52.917" fill="#cdd2da" stroke-linecap="round" stroke-width=".41404"/>
  </clipPath>
  <clipPath id="clipPath5894">
   <rect x="109.93" y="-453.61" width="52.917" height="52.917" fill="#cdd2da" stroke-linecap="round" stroke-width=".41404"/>
  </clipPath>
  <clipPath id="clipPath5890">
   <rect x="109.93" y="-453.61" width="52.917" height="52.917" fill="#cdd2da" stroke-linecap="round" stroke-width=".41404"/>
  </clipPath>
 </defs>
 <g transform="translate(-122.54 -100.35)">
  <rect transform="translate(12.612 553.97)" x="109.93" y="-453.61" width="52.917" height="52.917" clip-path="url(#clipPath5910)" fill="#cdd2da" stroke-linecap="round" stroke-width=".41404"/>
  <g fill="#bfc3ca" stroke-width=".035834">
   <path transform="translate(12.612 553.97)" d="m106.6-433.93c-0.30394 0.18762-0.6945 0.20991-1.0476 0.0596l-0.21041-0.0895-10.009-10.009-0.0724-0.19185c-0.0858-0.22742-0.0823-0.59968 8e-3 -0.84761l0.0644-0.17676 22.374-22.374 0.19417-0.0592c0.37537-0.11446 0.73617-0.051 1.0749 0.18896 0.13389 0.0948 1.6286 1.5776 5.0729 5.0321 4.6735 4.6875 4.8862 4.9048 4.9566 5.0645 0.10878 0.24701 0.11375 0.59147 0.0124 0.86671l-0.0859 0.23342-11.106 11.116c-6.4165 6.421-11.157 11.145-11.225 11.188zm21.937-22.735c0.0335-0.0987 0.0507-0.24114 0.038-0.31674l-0.0229-0.1374-4.9467-4.9607c-4.4773-4.4889-4.9605-4.9673-5.0942-5.0271-0.17412-0.0786-0.37681-0.0692-0.54395 0.0253-0.17449 0.0987-22.062 21.989-22.163 22.165-0.0986 0.17298-0.12628 0.40095-0.0662 0.54737 0.0414 0.10101 0.82168 0.89227 4.9831 5.0537l4.9339 4.9339 0.16205 0.0563c0.19464 0.0677 0.36709 0.0445 0.54218-0.0728 0.0714-0.0479 5.0769-5.0372 11.123-11.088l10.994-11zm-22.612 19.94c-0.11935 2e-5 -1.3393-1.22-1.3393-1.3393 0-0.0707 0.17854-0.25802 1.5915-1.671 1.4494-1.4494 1.5979-1.5911 1.6682-1.5842 0.0604 6e-3 0.20925 0.1398 0.70232 0.63286 0.49306 0.49306 0.62756 0.64156 0.63284 0.7023 6e-3 0.0698-0.13481 0.21874-1.5842 1.6682-1.413 1.413-1.6006 1.5912-1.671 1.5915zm4.006-4.0246c-0.0462-0.0139-0.32074-0.26829-0.70949-0.65703-0.60112-0.60112-0.63335-0.63787-0.6114-0.70953 0.0155-0.0512 1.9369-1.9893 6.0279-6.0804 5.4254-5.4254 6.0124-6.0056 6.0847-6.0052 0.11935 0 1.3393 1.22 1.3393 1.3393 0 0.072-0.58186 0.66134-6.028 6.1075-5.9337 5.9337-6.0291 6.0276-6.1032 6.0051zm12.902-12.919c-0.0801-0.0141-0.19336-0.11457-0.69255-0.61376s-0.59908-0.61307-0.61378-0.69257l-0.0169-0.0957 1.5931-1.5931c1.4145-1.4145 1.6022-1.5929 1.6726-1.5932 0.11935 1e-5 1.3393 1.22 1.3393 1.3393 0 0.0707-0.1787 0.25818-1.5932 1.6726l-1.5931 1.5931zm-19.063 14.807c-0.0441 4e-5 -0.23665-0.17585-0.70007-0.63926-0.54736-0.54736-0.63927-0.65071-0.63927-0.71889 4e-5 -0.0707 0.17723-0.2567 1.5771-1.6566 1.322-1.322 1.5908-1.5791 1.6622-1.5902 0.0803-0.0125 0.12074 0.0224 0.71677 0.6184 0.4981 0.49811 0.63351 0.64744 0.63878 0.70824 6e-3 0.0698-0.13547 0.21939-1.5937 1.6776-1.2113 1.2113-1.6164 1.6001-1.6616 1.6008zm4.0313-4.0687c-0.0459-0.014-0.31587-0.2634-0.69378-0.64132-0.56705-0.56705-0.61864-0.62541-0.61408-0.70684 4e-3 -0.077 0.0833-0.16717 0.62772-0.71163 0.53288-0.53287 0.63494-0.62327 0.70289-0.6234 0.0683-4e-5 0.17157 0.0919 0.71893 0.63921 0.46342 0.46342 0.63949 0.65575 0.63925 0.70006 0 0.044-0.17886 0.23967-0.65284 0.71365-0.61952 0.61952-0.65646 0.65194-0.72815 0.63001zm2.1766-2.1393c-0.044 0-0.23967-0.17887-0.71366-0.65285-0.61952-0.61952-0.65192-0.65644-0.63-0.72814 0.0138-0.046 0.26341-0.31587 0.64132-0.69378 0.56704-0.56705 0.6267-0.61737 0.70674-0.61421 0.077 4e-3 0.16653 0.0826 0.70243 0.61851 0.37487 0.37487 0.62273 0.64372 0.63692 0.68937 0.0217 0.0713-0.0105 0.10862-0.63002 0.72814-0.47398 0.47399-0.66934 0.65302-0.71365 0.65285zm2.1049-2.1658c-0.0861-0.0181-0.1888-0.11118-0.70585-0.64128-0.56541-0.5794-0.60454-0.62553-0.59173-0.70548 0.0106-0.0682 0.13913-0.21092 0.64048-0.71227 0.61939-0.61939 0.62843-0.62692 0.72292-0.61034 0.14358 0.0252 1.3225 1.2048 1.3225 1.3232-4e-5 0.0683-0.0924 0.17185-0.64382 0.72329l-0.64375 0.64376-0.10069-0.021zm2.1546-2.1308c-0.046-0.0138-0.31586-0.2634-0.69378-0.64133-0.56705-0.56704-0.61735-0.62668-0.6142-0.70672 4e-3 -0.0771 0.0826-0.16654 0.61852-0.70244 0.37488-0.37487 0.64373-0.62273 0.68938-0.63692 0.0713-0.0217 0.10862 0.0105 0.72814 0.63001 0.47398 0.47398 0.65305 0.66931 0.65284 0.71366 0 0.044-0.17886 0.23966-0.65284 0.71365-0.61952 0.61952-0.65644 0.65192-0.72814 0.63001zm2.1766-2.1393c-0.044 0-0.23664-0.17583-0.70005-0.63924-0.54737-0.54737-0.63916-0.65082-0.63934-0.71882 0-0.11934 1.22-1.3393 1.3393-1.3393 0.0683 0 0.17146 0.092 0.71883 0.63934 0.46341 0.46341 0.63949 0.65575 0.63925 0.70005 0 0.0867-1.2715 1.3582-1.3582 1.3582zm2.1538-2.1538c-0.044 0-0.23965-0.17886-0.71364-0.65284-0.61953-0.61952-0.65194-0.65645-0.63002-0.72814 0.0139-0.046 0.2634-0.31585 0.64132-0.69377 0.56705-0.56705 0.62669-0.61736 0.70675-0.61421 0.077 4e-3 0.16653 0.0826 0.70243 0.61852 0.37488 0.37488 0.62273 0.64373 0.63692 0.68938 0.0217 0.0713-0.0105 0.10862-0.63 0.72813-0.47399 0.47398-0.66936 0.65302-0.71366 0.65285zm2.1546-2.1429c-0.0518 0.0118-0.16692-0.0884-0.70274-0.61161-0.61664-0.60272-0.64095-0.62929-0.64082-0.72939 0-0.10233 0.0212-0.12494 1.5946-1.6983 1.4158-1.4158 1.6036-1.5943 1.6741-1.5946 0.0683 0 0.17145 0.092 0.71881 0.63932 0.46343 0.46343 0.63946 0.65579 0.63926 0.70006 1e-5 0.0762-3.1851 3.2725-3.2831 3.2948zm-19.064 14.777c-0.0947 0.0167-0.10294 0.01-0.73989-0.62725l-0.64411-0.64411 0.0207-0.0995c0.018-0.0868 0.16094-0.23786 1.1227-1.1872 1.0572-1.0432 1.1056-1.087 1.1871-1.0745 0.0679 0.0106 0.20933 0.13731 0.70117 0.62915 0.58217 0.58217 0.61647 0.62098 0.61593 0.71733 0 0.0981-0.0338 0.13519-1.0839 1.1853-0.94004 0.94003-1.0961 1.0867-1.1798 1.1007zm3.0764-3.0974c-0.0991-1e-5 -0.13275-0.029-0.71973-0.61601-0.49198-0.49198-0.6189-0.63282-0.62913-0.70115-0.0125-0.0805 0.0226-0.12097 0.63369-0.73206 0.49701-0.49701 0.66268-0.64642 0.71286-0.64686 0.0953 0 1.3531 1.2575 1.3531 1.353 0 0.0496-0.15333 0.22302-0.62347 0.70435-0.59932 0.61565-0.62712 0.63878-0.72721 0.63863zm2.1687-2.1477c-0.0948 0.0166-0.10302 0.01-0.739-0.62642-0.63601-0.63601-0.64333-0.64408-0.62641-0.739 0.0141-0.0801 0.11459-0.19337 0.61378-0.69256 0.49918-0.49918 0.61302-0.5991 0.69254-0.61377 0.0947-0.0167 0.10303-0.01 0.73899 0.62642 0.63601 0.636 0.64334 0.64408 0.62643 0.739-0.0141 0.0801-0.11458 0.19337-0.61377 0.69255-0.49919 0.49919-0.61307 0.59907-0.69256 0.61378zm2.1538-2.1538c-0.0947 0.0167-0.10302 0.01-0.739-0.62643-0.636-0.636-0.64333-0.64408-0.62642-0.73899 0.0141-0.0801 0.11459-0.19336 0.61379-0.69255 0.49918-0.49919 0.61303-0.59911 0.69255-0.61378 0.0948-0.0167 0.10302-0.01 0.73899 0.62641 0.636 0.63601 0.64333 0.64409 0.62642 0.73901-0.0141 0.0801-0.11459 0.19337-0.61377 0.69255-0.49919 0.49919-0.61307 0.59907-0.69256 0.61378zm2.1678-2.1412-0.0798 0.0342-1.3458-1.3458 0.0423-0.0943c0.0259-0.0578 0.27935-0.32548 0.65526-0.69183 0.57211-0.55812 0.61816-0.59717 0.69797-0.58446 0.0679 0.0106 0.2094 0.1376 0.70104 0.62924 0.58218 0.58219 0.61649 0.621 0.61594 0.71734 0 0.0958-0.0327 0.13391-0.6034 0.70154-0.33174 0.33023-0.63934 0.61556-0.68327 0.63435zm2.1001-2.1466c-0.0991 0-0.13274-0.029-0.71973-0.616-0.49198-0.49198-0.61885-0.63285-0.62925-0.70104-0.0126-0.0804 0.0226-0.12098 0.63369-0.73206 0.49701-0.49702 0.66267-0.64642 0.71281-0.64689 0.0953 0 1.3531 1.2575 1.3531 1.353 0 0.0496-0.15334 0.22303-0.62347 0.70436-0.59931 0.61564-0.62712 0.63878-0.7272 0.63863zm2.1687-2.1477c-0.0946 0.0165-0.10302 0.01-0.739-0.62643-0.636-0.636-0.64334-0.64408-0.62642-0.739 0.0141-0.0801 0.11458-0.19337 0.61377-0.69256 0.49919-0.49918 0.61303-0.59911 0.69256-0.61377 0.0946-0.0165 0.10302-0.01 0.739 0.62642 0.636 0.636 0.64333 0.64409 0.62642 0.739-0.0142 0.0801-0.11459 0.19337-0.61377 0.69256-0.49919 0.49919-0.61303 0.59911-0.69256 0.61378zm2.1538-2.1538c-0.0946 0.0166-0.10302 0.01-0.739-0.62643-0.63601-0.636-0.64296-0.64445-0.62643-0.739 0.0141-0.08 0.1146-0.19338 0.61378-0.69256 0.49919-0.49919 0.61303-0.5991 0.69256-0.61378 0.0946-0.0165 0.10302-0.01 0.73901 0.62642 0.636 0.63601 0.64333 0.64409 0.62642 0.73901-0.0141 0.08-0.11459 0.19337-0.61377 0.69256-0.49919 0.49918-0.61303 0.5991-0.69257 0.61378zm2.1697-2.1421c-0.11166 0.0475-0.2001-0.0244-0.84403-0.686-0.42354-0.4352-0.56736-0.59979-0.56733-0.6489 1.1e-4 -0.0511 0.21841-0.28742 0.98292-1.0631 0.85586-0.86752 0.99678-0.99903 1.0826-1.018l0.0995-0.0207 0.64413 0.64412c0.63688 0.63688 0.6438 0.64531 0.62726 0.73985-0.0145 0.0829-0.14787 0.22618-0.98212 1.0576-0.53072 0.52922-1.0003 0.97693-1.0432 0.99519zm-20.329 15.993c-0.0682-3e-5 -0.17152-0.0919-0.71888-0.63927-0.46342-0.46341-0.63924-0.65601-0.63925-0.70006 2e-5 -0.0865 1.2716-1.3581 1.3581-1.3582 0.044 0 0.23665 0.17585 0.70007 0.63926 0.54737 0.54736 0.63916 0.65082 0.63922 0.71894 0 0.0681-0.0911 0.17059-0.62992 0.7094-0.53881 0.5388-0.64145 0.62977-0.70942 0.62992zm2.0543-2.0962c-0.14545-0.0303-1.3417-1.2508-1.3199-1.3467 0.0184-0.0813 1.2616-1.3245 1.3429-1.343 0.0519-0.0118 0.16692 0.0884 0.70275 0.61161 0.61668 0.60268 0.64095 0.62928 0.64081 0.72939 0 0.0991-0.0288 0.13251-0.63291 0.73664l-0.63289 0.63289zm2.1266-2.0846c-0.0683 0-0.17157-0.0919-0.71894-0.63921-0.46341-0.46342-0.63945-0.65579-0.63925-0.70007 0-0.0865 1.2716-1.3581 1.3582-1.3582 0.044 0 0.23664 0.17584 0.70006 0.63926 0.54736 0.54736 0.63915 0.65081 0.63922 0.71893 4e-5 0.0681-0.0911 0.17061-0.62992 0.7094-0.53881 0.53881-0.64144 0.62978-0.70942 0.62993zm2.061-2.0938c-0.0802-0.0143-0.19406-0.11528-0.69985-0.62108-0.36801-0.36801-0.61282-0.63381-0.62695-0.6794-0.0215-0.0714 0.0105-0.10861 0.63001-0.72814 0.47399-0.47399 0.66934-0.65301 0.71365-0.65285 0.044 0 0.23967 0.17887 0.71366 0.65285 0.61952 0.61953 0.65192 0.65644 0.63 0.72814-0.0139 0.046-0.26417 0.31663-0.6438 0.69626-0.61304 0.61303-0.62229 0.62079-0.71677 0.60419zm2.137-2.079c-0.0639 0.0168-0.12784-0.0393-0.72259-0.63403-0.47369-0.47369-0.65264-0.66896-0.65247-0.71328 0-0.044 0.17886-0.23967 0.65284-0.71366 0.61951-0.6195 0.65644-0.65191 0.72814-0.63001 0.046 0.0139 0.31585 0.2634 0.69377 0.64132 0.56706 0.56706 0.61864 0.62541 0.6142 0.70675-4e-3 0.0772-0.0824 0.16604-0.62399 0.70628-0.37372 0.37222-0.64692 0.62592-0.68971 0.63657zm2.0564-2.0944c-0.0769-4e-3 -0.16653-0.0826-0.70243-0.61851-0.37488-0.37488-0.62272-0.64372-0.63691-0.68936-0.0217-0.0713 0.0105-0.10862 0.62999-0.72813 0.47399-0.47399 0.66932-0.65307 0.71367-0.65286 0.044 0 0.23967 0.17886 0.71366 0.65285 0.61951 0.6195 0.65191 0.65643 0.62999 0.72813-0.0138 0.046-0.2634 0.31585-0.64131 0.69376-0.56705 0.56704-0.62542 0.61865-0.70674 0.61421zm2.1245-2.0865c-0.0639 0.0168-0.12785-0.0393-0.7226-0.63402-0.47369-0.47369-0.65267-0.66893-0.65247-0.71328 0-0.044 0.17887-0.23968 0.65286-0.71367 0.61951-0.61951 0.65643-0.65191 0.72813-0.63 0.0458 0.0139 0.31138 0.25893 0.67938 0.62693 0.50581 0.50582 0.60751 0.61917 0.62097 0.69999 0.0167 0.0947 9e-3 0.10314-0.60954 0.72073-0.37803 0.37727-0.65377 0.63276-0.6966 0.64347zm2.0608-2.0858c-0.0683 4e-5 -0.17144-0.092-0.71881-0.63934-0.46341-0.46341-0.6395-0.65574-0.63926-0.70006-1.2e-4 -0.0866 1.2715-1.3582 1.3581-1.3581 0.044 0 0.23665 0.17584 0.70007 0.63926 0.54736 0.54737 0.63915 0.65082 0.63933 0.71882 0 0.068-0.0911 0.17061-0.62992 0.7094-0.53881 0.5388-0.64144 0.62977-0.7094 0.62991zm2.0543-2.0963c-0.14544-0.0303-1.3417-1.2508-1.32-1.3467 0.0184-0.0813 1.2616-1.3245 1.343-1.343 0.0519-0.0118 0.16692 0.0884 0.70275 0.61162 0.61781 0.60155 0.64095 0.62929 0.64081 0.72938 0 0.0991-0.0288 0.13251-0.63293 0.73665l-0.63289 0.63289zm2.1266-2.0846c-0.0683 0-0.17145-0.092-0.71882-0.63933-0.46342-0.46342-0.63946-0.65579-0.63926-0.70007 0-0.0867 1.2715-1.3582 1.3582-1.3582 0.044 0 0.23666 0.17585 0.70008 0.63926 0.54736 0.54737 0.63915 0.65083 0.63933 0.71882 0 0.068-0.0911 0.1706-0.62993 0.70941-0.5388 0.5388-0.64142 0.62976-0.7094 0.62992z" clip-path="url(#clipPath5906)"/>
   <path transform="translate(12.612 553.97)" d="m106.6-381.02c-0.30394 0.18762-0.6945 0.20991-1.0476 0.0596l-0.21041-0.0895-10.009-10.009-0.0724-0.19185c-0.0858-0.22742-0.0823-0.59968 8e-3 -0.84761l0.0644-0.17676 22.374-22.374 0.19417-0.0592c0.37537-0.11446 0.73617-0.051 1.0749 0.18896 0.13389 0.0948 1.6286 1.5776 5.0729 5.0321 4.6735 4.6875 4.8862 4.9048 4.9566 5.0645 0.10878 0.24701 0.11375 0.59147 0.0124 0.86671l-0.0859 0.23342-11.106 11.116c-6.4165 6.421-11.157 11.145-11.225 11.188zm21.937-22.735c0.0335-0.0987 0.0507-0.24114 0.038-0.31674l-0.0229-0.1374-4.9467-4.9607c-4.4773-4.4889-4.9605-4.9673-5.0942-5.0271-0.17412-0.0786-0.37681-0.0692-0.54395 0.0253-0.17449 0.0987-22.062 21.989-22.163 22.165-0.0986 0.17298-0.12628 0.40095-0.0662 0.54737 0.0414 0.10101 0.82168 0.89227 4.9831 5.0537l4.9339 4.9339 0.16205 0.0563c0.19464 0.0677 0.36709 0.0445 0.54218-0.0728 0.0714-0.0479 5.0769-5.0372 11.123-11.088l10.994-11zm-22.612 19.94c-0.11935 2e-5 -1.3393-1.22-1.3393-1.3393 0-0.0707 0.17854-0.25802 1.5915-1.671 1.4494-1.4494 1.5979-1.5911 1.6682-1.5842 0.0604 6e-3 0.20925 0.1398 0.70232 0.63286 0.49306 0.49306 0.62756 0.64156 0.63284 0.7023 6e-3 0.0698-0.13481 0.21874-1.5842 1.6682-1.413 1.413-1.6006 1.5912-1.671 1.5915zm4.006-4.0246c-0.0462-0.0139-0.32074-0.26829-0.70949-0.65703-0.60112-0.60112-0.63335-0.63787-0.6114-0.70953 0.0155-0.0512 1.9369-1.9893 6.0279-6.0804 5.4254-5.4254 6.0124-6.0056 6.0847-6.0052 0.11935 0 1.3393 1.22 1.3393 1.3393 0 0.072-0.58186 0.66134-6.028 6.1075-5.9337 5.9337-6.0291 6.0276-6.1032 6.0051zm12.902-12.919c-0.0801-0.0141-0.19336-0.11457-0.69255-0.61376s-0.59908-0.61307-0.61378-0.69257l-0.0169-0.0957 1.5931-1.5931c1.4145-1.4145 1.6022-1.5929 1.6726-1.5932 0.11935 1e-5 1.3393 1.22 1.3393 1.3393 0 0.0707-0.1787 0.25818-1.5932 1.6726l-1.5931 1.5931zm-19.063 14.807c-0.0441 4e-5 -0.23665-0.17585-0.70007-0.63926-0.54736-0.54736-0.63927-0.65071-0.63927-0.71889 4e-5 -0.0707 0.17723-0.2567 1.5771-1.6566 1.322-1.322 1.5908-1.5791 1.6622-1.5902 0.0803-0.0125 0.12074 0.0224 0.71677 0.6184 0.4981 0.49811 0.63351 0.64744 0.63878 0.70824 6e-3 0.0698-0.13547 0.21939-1.5937 1.6776-1.2113 1.2113-1.6164 1.6001-1.6616 1.6008zm4.0313-4.0687c-0.0459-0.014-0.31587-0.2634-0.69378-0.64132-0.56705-0.56705-0.61864-0.62541-0.61408-0.70684 4e-3 -0.077 0.0833-0.16717 0.62772-0.71163 0.53288-0.53287 0.63494-0.62327 0.70289-0.6234 0.0683-4e-5 0.17157 0.0919 0.71893 0.63921 0.46342 0.46342 0.63949 0.65575 0.63925 0.70006 0 0.044-0.17886 0.23967-0.65284 0.71365-0.61952 0.61952-0.65646 0.65194-0.72815 0.63001zm2.1766-2.1393c-0.044 0-0.23967-0.17887-0.71366-0.65285-0.61952-0.61952-0.65192-0.65644-0.63-0.72814 0.0138-0.046 0.26341-0.31587 0.64132-0.69378 0.56704-0.56705 0.6267-0.61737 0.70674-0.61421 0.077 4e-3 0.16653 0.0826 0.70243 0.61851 0.37487 0.37487 0.62273 0.64372 0.63692 0.68937 0.0217 0.0713-0.0105 0.10862-0.63002 0.72814-0.47398 0.47399-0.66934 0.65302-0.71365 0.65285zm2.1049-2.1658c-0.0861-0.0181-0.1888-0.11118-0.70585-0.64128-0.56541-0.5794-0.60454-0.62553-0.59173-0.70548 0.0106-0.0682 0.13913-0.21092 0.64048-0.71227 0.61939-0.61939 0.62843-0.62692 0.72292-0.61034 0.14358 0.0252 1.3225 1.2048 1.3225 1.3232-4e-5 0.0683-0.0924 0.17185-0.64382 0.72329l-0.64375 0.64376-0.10069-0.021zm2.1546-2.1308c-0.046-0.0138-0.31586-0.2634-0.69378-0.64133-0.56705-0.56704-0.61735-0.62668-0.6142-0.70672 4e-3 -0.0771 0.0826-0.16654 0.61852-0.70244 0.37488-0.37487 0.64373-0.62273 0.68938-0.63692 0.0713-0.0217 0.10862 0.0105 0.72814 0.63001 0.47398 0.47398 0.65305 0.66931 0.65284 0.71366 0 0.044-0.17886 0.23966-0.65284 0.71365-0.61952 0.61952-0.65644 0.65192-0.72814 0.63001zm2.1766-2.1393c-0.044 0-0.23664-0.17583-0.70005-0.63924-0.54737-0.54737-0.63916-0.65082-0.63934-0.71882 0-0.11934 1.22-1.3393 1.3393-1.3393 0.0683 0 0.17146 0.092 0.71883 0.63934 0.46341 0.46341 0.63949 0.65575 0.63925 0.70005 0 0.0867-1.2715 1.3582-1.3582 1.3582zm2.1538-2.1538c-0.044 0-0.23965-0.17886-0.71364-0.65284-0.61953-0.61952-0.65194-0.65645-0.63002-0.72814 0.0139-0.046 0.2634-0.31585 0.64132-0.69377 0.56705-0.56705 0.62669-0.61736 0.70675-0.61421 0.077 4e-3 0.16653 0.0826 0.70243 0.61852 0.37488 0.37488 0.62273 0.64373 0.63692 0.68938 0.0217 0.0713-0.0105 0.10862-0.63 0.72813-0.47399 0.47398-0.66936 0.65302-0.71366 0.65285zm2.1546-2.1429c-0.0518 0.0118-0.16692-0.0884-0.70274-0.61161-0.61664-0.60272-0.64095-0.62929-0.64082-0.72939 0-0.10233 0.0212-0.12494 1.5946-1.6983 1.4158-1.4158 1.6036-1.5943 1.6741-1.5946 0.0683 0 0.17145 0.092 0.71881 0.63932 0.46343 0.46343 0.63946 0.65579 0.63926 0.70006 1e-5 0.0762-3.1851 3.2725-3.2831 3.2948zm-19.064 14.777c-0.0947 0.0167-0.10294 0.01-0.73989-0.62725l-0.64411-0.64411 0.0207-0.0995c0.018-0.0868 0.16094-0.23786 1.1227-1.1872 1.0572-1.0432 1.1056-1.087 1.1871-1.0745 0.0679 0.0106 0.20933 0.13731 0.70117 0.62915 0.58217 0.58217 0.61647 0.62098 0.61593 0.71733 0 0.0981-0.0338 0.13519-1.0839 1.1853-0.94004 0.94003-1.0961 1.0867-1.1798 1.1007zm3.0764-3.0974c-0.0991-1e-5 -0.13275-0.029-0.71973-0.61601-0.49198-0.49198-0.6189-0.63282-0.62913-0.70115-0.0125-0.0805 0.0226-0.12097 0.63369-0.73206 0.49701-0.49701 0.66268-0.64642 0.71286-0.64686 0.0953 0 1.3531 1.2575 1.3531 1.353 0 0.0496-0.15333 0.22302-0.62347 0.70435-0.59932 0.61565-0.62712 0.63878-0.72721 0.63863zm2.1687-2.1477c-0.0948 0.0166-0.10302 0.01-0.739-0.62642-0.63601-0.63601-0.64333-0.64408-0.62641-0.739 0.0141-0.0801 0.11459-0.19337 0.61378-0.69256 0.49918-0.49918 0.61302-0.5991 0.69254-0.61377 0.0947-0.0167 0.10303-0.01 0.73899 0.62642 0.63601 0.636 0.64334 0.64408 0.62643 0.739-0.0141 0.0801-0.11458 0.19337-0.61377 0.69255-0.49919 0.49919-0.61307 0.59907-0.69256 0.61378zm2.1538-2.1538c-0.0947 0.0167-0.10302 0.01-0.739-0.62643-0.636-0.636-0.64333-0.64408-0.62642-0.73899 0.0141-0.0801 0.11459-0.19336 0.61379-0.69255 0.49918-0.49919 0.61303-0.59911 0.69255-0.61378 0.0948-0.0167 0.10302-0.01 0.73899 0.62641 0.636 0.63601 0.64333 0.64409 0.62642 0.73901-0.0141 0.0801-0.11459 0.19337-0.61377 0.69255-0.49919 0.49919-0.61307 0.59907-0.69256 0.61378zm2.1678-2.1412-0.0798 0.0342-1.3458-1.3458 0.0423-0.0943c0.0259-0.0578 0.27935-0.32548 0.65526-0.69183 0.57211-0.55812 0.61816-0.59717 0.69797-0.58446 0.0679 0.0106 0.2094 0.1376 0.70104 0.62924 0.58218 0.58219 0.61649 0.621 0.61594 0.71734 0 0.0958-0.0327 0.13391-0.6034 0.70154-0.33174 0.33023-0.63934 0.61556-0.68327 0.63435zm2.1001-2.1466c-0.0991 0-0.13274-0.029-0.71973-0.616-0.49198-0.49198-0.61885-0.63285-0.62925-0.70104-0.0126-0.0804 0.0226-0.12098 0.63369-0.73206 0.49701-0.49702 0.66267-0.64642 0.71281-0.64689 0.0953 0 1.3531 1.2575 1.3531 1.353 0 0.0496-0.15334 0.22303-0.62347 0.70436-0.59931 0.61564-0.62712 0.63878-0.7272 0.63863zm2.1687-2.1477c-0.0946 0.0165-0.10302 0.01-0.739-0.62643-0.636-0.636-0.64334-0.64408-0.62642-0.739 0.0141-0.0801 0.11458-0.19337 0.61377-0.69256 0.49919-0.49918 0.61303-0.59911 0.69256-0.61377 0.0946-0.0165 0.10302-0.01 0.739 0.62642 0.636 0.636 0.64333 0.64409 0.62642 0.739-0.0142 0.0801-0.11459 0.19337-0.61377 0.69256-0.49919 0.49919-0.61303 0.59911-0.69256 0.61378zm2.1538-2.1538c-0.0946 0.0166-0.10302 0.01-0.739-0.62643-0.63601-0.636-0.64296-0.64445-0.62643-0.739 0.0141-0.08 0.1146-0.19338 0.61378-0.69256 0.49919-0.49919 0.61303-0.5991 0.69256-0.61378 0.0946-0.0165 0.10302-0.01 0.73901 0.62642 0.636 0.63601 0.64333 0.64409 0.62642 0.73901-0.0141 0.08-0.11459 0.19337-0.61377 0.69256-0.49919 0.49918-0.61303 0.5991-0.69257 0.61378zm2.1697-2.1421c-0.11166 0.0475-0.2001-0.0244-0.84403-0.686-0.42354-0.4352-0.56736-0.59979-0.56733-0.6489 1.1e-4 -0.0511 0.21841-0.28742 0.98292-1.0631 0.85586-0.86752 0.99678-0.99903 1.0826-1.018l0.0995-0.0207 0.64413 0.64412c0.63688 0.63688 0.6438 0.64531 0.62726 0.73985-0.0145 0.0829-0.14787 0.22618-0.98212 1.0576-0.53072 0.52922-1.0003 0.97693-1.0432 0.99519zm-20.329 15.993c-0.0682-3e-5 -0.17152-0.0919-0.71888-0.63927-0.46342-0.46341-0.63924-0.65601-0.63925-0.70006 2e-5 -0.0865 1.2716-1.3581 1.3581-1.3582 0.044 0 0.23665 0.17585 0.70007 0.63926 0.54737 0.54736 0.63916 0.65082 0.63922 0.71894 0 0.0681-0.0911 0.17059-0.62992 0.7094-0.53881 0.5388-0.64145 0.62977-0.70942 0.62992zm2.0543-2.0962c-0.14545-0.0303-1.3417-1.2508-1.3199-1.3467 0.0184-0.0813 1.2616-1.3245 1.3429-1.343 0.0519-0.0118 0.16692 0.0884 0.70275 0.61161 0.61668 0.60268 0.64095 0.62928 0.64081 0.72939 0 0.0991-0.0288 0.13251-0.63291 0.73664l-0.63289 0.63289zm2.1266-2.0846c-0.0683 0-0.17157-0.0919-0.71894-0.63921-0.46341-0.46342-0.63945-0.65579-0.63925-0.70007 0-0.0865 1.2716-1.3581 1.3582-1.3582 0.044 0 0.23664 0.17584 0.70006 0.63926 0.54736 0.54736 0.63915 0.65081 0.63922 0.71893 4e-5 0.0681-0.0911 0.17061-0.62992 0.7094-0.53881 0.53881-0.64144 0.62978-0.70942 0.62993zm2.061-2.0938c-0.0802-0.0143-0.19406-0.11528-0.69985-0.62108-0.36801-0.36801-0.61282-0.63381-0.62695-0.6794-0.0215-0.0714 0.0105-0.10861 0.63001-0.72814 0.47399-0.47399 0.66934-0.65301 0.71365-0.65285 0.044 0 0.23967 0.17887 0.71366 0.65285 0.61952 0.61953 0.65192 0.65644 0.63 0.72814-0.0139 0.046-0.26417 0.31663-0.6438 0.69626-0.61304 0.61303-0.62229 0.62079-0.71677 0.60419zm2.137-2.079c-0.0639 0.0168-0.12784-0.0393-0.72259-0.63403-0.47369-0.47369-0.65264-0.66896-0.65247-0.71328 0-0.044 0.17886-0.23967 0.65284-0.71366 0.61951-0.6195 0.65644-0.65191 0.72814-0.63001 0.046 0.0139 0.31585 0.2634 0.69377 0.64132 0.56706 0.56706 0.61864 0.62541 0.6142 0.70675-4e-3 0.0772-0.0824 0.16604-0.62399 0.70628-0.37372 0.37222-0.64692 0.62592-0.68971 0.63657zm2.0564-2.0944c-0.0769-4e-3 -0.16653-0.0826-0.70243-0.61851-0.37488-0.37488-0.62272-0.64372-0.63691-0.68936-0.0217-0.0713 0.0105-0.10862 0.62999-0.72813 0.47399-0.47399 0.66932-0.65307 0.71367-0.65286 0.044 0 0.23967 0.17886 0.71366 0.65285 0.61951 0.6195 0.65191 0.65643 0.62999 0.72813-0.0138 0.046-0.2634 0.31585-0.64131 0.69376-0.56705 0.56704-0.62542 0.61865-0.70674 0.61421zm2.1245-2.0865c-0.0639 0.0168-0.12785-0.0393-0.7226-0.63402-0.47369-0.47369-0.65267-0.66893-0.65247-0.71328 0-0.044 0.17887-0.23968 0.65286-0.71367 0.61951-0.61951 0.65643-0.65191 0.72813-0.63 0.0458 0.0139 0.31138 0.25893 0.67938 0.62693 0.50581 0.50582 0.60751 0.61917 0.62097 0.69999 0.0167 0.0947 9e-3 0.10314-0.60954 0.72073-0.37803 0.37727-0.65377 0.63276-0.6966 0.64347zm2.0608-2.0858c-0.0683 4e-5 -0.17144-0.092-0.71881-0.63934-0.46341-0.46341-0.6395-0.65574-0.63926-0.70006-1.2e-4 -0.0866 1.2715-1.3582 1.3581-1.3581 0.044 0 0.23665 0.17584 0.70007 0.63926 0.54736 0.54737 0.63915 0.65082 0.63933 0.71882 0 0.068-0.0911 0.17061-0.62992 0.7094-0.53881 0.5388-0.64144 0.62977-0.7094 0.62991zm2.0543-2.0963c-0.14544-0.0303-1.3417-1.2508-1.32-1.3467 0.0184-0.0813 1.2616-1.3245 1.343-1.343 0.0519-0.0118 0.16692 0.0884 0.70275 0.61162 0.61781 0.60155 0.64095 0.62929 0.64081 0.72938 0 0.0991-0.0288 0.13251-0.63293 0.73665l-0.63289 0.63289zm2.1266-2.0846c-0.0683 0-0.17145-0.092-0.71882-0.63933-0.46342-0.46342-0.63946-0.65579-0.63926-0.70007 0-0.0867 1.2715-1.3582 1.3582-1.3582 0.044 0 0.23666 0.17585 0.70008 0.63926 0.54736 0.54737 0.63915 0.65083 0.63933 0.71882 0 0.068-0.0911 0.1706-0.62993 0.70941-0.5388 0.5388-0.64142 0.62976-0.7094 0.62992z" clip-path="url(#clipPath5902)"/>
   <path transform="translate(12.612 553.97)" d="m159.52-381.02c-0.30394 0.18762-0.6945 0.20991-1.0476 0.0596l-0.21041-0.0895-10.009-10.009-0.0724-0.19185c-0.0858-0.22742-0.0823-0.59968 8e-3 -0.84761l0.0644-0.17676 22.374-22.374 0.19417-0.0592c0.37537-0.11446 0.73617-0.051 1.0749 0.18896 0.13389 0.0948 1.6286 1.5776 5.0729 5.0321 4.6735 4.6875 4.8862 4.9048 4.9566 5.0645 0.10878 0.24701 0.11375 0.59147 0.0124 0.86671l-0.0859 0.23342-11.106 11.116c-6.4165 6.421-11.157 11.145-11.225 11.188zm21.937-22.735c0.0335-0.0987 0.0507-0.24114 0.038-0.31674l-0.0229-0.1374-4.9467-4.9607c-4.4773-4.4889-4.9605-4.9673-5.0942-5.0271-0.17412-0.0786-0.37681-0.0692-0.54395 0.0253-0.17449 0.0987-22.062 21.989-22.163 22.165-0.0986 0.17298-0.12628 0.40095-0.0662 0.54737 0.0414 0.10101 0.82168 0.89227 4.9831 5.0537l4.9339 4.9339 0.16205 0.0563c0.19464 0.0677 0.36709 0.0445 0.54218-0.0728 0.0714-0.0479 5.0769-5.0372 11.123-11.088l10.994-11zm-22.612 19.94c-0.11935 2e-5 -1.3393-1.22-1.3393-1.3393 0-0.0707 0.17854-0.25802 1.5915-1.671 1.4494-1.4494 1.5979-1.5911 1.6682-1.5842 0.0604 6e-3 0.20925 0.1398 0.70232 0.63286 0.49306 0.49306 0.62756 0.64156 0.63284 0.7023 6e-3 0.0698-0.13481 0.21874-1.5842 1.6682-1.413 1.413-1.6006 1.5912-1.671 1.5915zm4.006-4.0246c-0.0462-0.0139-0.32074-0.26829-0.70949-0.65703-0.60112-0.60112-0.63335-0.63787-0.6114-0.70953 0.0155-0.0512 1.9369-1.9893 6.0279-6.0804 5.4254-5.4254 6.0124-6.0056 6.0847-6.0052 0.11935 0 1.3393 1.22 1.3393 1.3393 0 0.072-0.58186 0.66134-6.028 6.1075-5.9337 5.9337-6.0291 6.0276-6.1032 6.0051zm12.902-12.919c-0.0801-0.0141-0.19336-0.11457-0.69255-0.61376s-0.59908-0.61307-0.61378-0.69257l-0.0169-0.0957 1.5931-1.5931c1.4145-1.4145 1.6022-1.5929 1.6726-1.5932 0.11935 1e-5 1.3393 1.22 1.3393 1.3393 0 0.0707-0.1787 0.25818-1.5932 1.6726l-1.5931 1.5931zm-19.063 14.807c-0.0441 4e-5 -0.23665-0.17585-0.70007-0.63926-0.54736-0.54736-0.63927-0.65071-0.63927-0.71889 4e-5 -0.0707 0.17723-0.2567 1.5771-1.6566 1.322-1.322 1.5908-1.5791 1.6622-1.5902 0.0803-0.0125 0.12074 0.0224 0.71677 0.6184 0.4981 0.49811 0.63351 0.64744 0.63878 0.70824 6e-3 0.0698-0.13547 0.21939-1.5937 1.6776-1.2113 1.2113-1.6164 1.6001-1.6616 1.6008zm4.0313-4.0687c-0.0459-0.014-0.31587-0.2634-0.69378-0.64132-0.56705-0.56705-0.61864-0.62541-0.61408-0.70684 4e-3 -0.077 0.0833-0.16717 0.62772-0.71163 0.53288-0.53287 0.63494-0.62327 0.70289-0.6234 0.0683-4e-5 0.17157 0.0919 0.71893 0.63921 0.46342 0.46342 0.63949 0.65575 0.63925 0.70006 0 0.044-0.17886 0.23967-0.65284 0.71365-0.61952 0.61952-0.65646 0.65194-0.72815 0.63001zm2.1766-2.1393c-0.044 0-0.23967-0.17887-0.71366-0.65285-0.61952-0.61952-0.65192-0.65644-0.63-0.72814 0.0138-0.046 0.26341-0.31587 0.64132-0.69378 0.56704-0.56705 0.6267-0.61737 0.70674-0.61421 0.077 4e-3 0.16653 0.0826 0.70243 0.61851 0.37487 0.37487 0.62273 0.64372 0.63692 0.68937 0.0217 0.0713-0.0105 0.10862-0.63002 0.72814-0.47398 0.47399-0.66934 0.65302-0.71365 0.65285zm2.1049-2.1658c-0.0861-0.0181-0.1888-0.11118-0.70585-0.64128-0.56541-0.5794-0.60454-0.62553-0.59173-0.70548 0.0106-0.0682 0.13913-0.21092 0.64048-0.71227 0.61939-0.61939 0.62843-0.62692 0.72292-0.61034 0.14358 0.0252 1.3225 1.2048 1.3225 1.3232-4e-5 0.0683-0.0924 0.17185-0.64382 0.72329l-0.64375 0.64376-0.10069-0.021zm2.1546-2.1308c-0.046-0.0138-0.31586-0.2634-0.69378-0.64133-0.56705-0.56704-0.61735-0.62668-0.6142-0.70672 4e-3 -0.0771 0.0826-0.16654 0.61852-0.70244 0.37488-0.37487 0.64373-0.62273 0.68938-0.63692 0.0713-0.0217 0.10862 0.0105 0.72814 0.63001 0.47398 0.47398 0.65305 0.66931 0.65284 0.71366 0 0.044-0.17886 0.23966-0.65284 0.71365-0.61952 0.61952-0.65644 0.65192-0.72814 0.63001zm2.1766-2.1393c-0.044 0-0.23664-0.17583-0.70005-0.63924-0.54737-0.54737-0.63916-0.65082-0.63934-0.71882 0-0.11934 1.22-1.3393 1.3393-1.3393 0.0683 0 0.17146 0.092 0.71883 0.63934 0.46341 0.46341 0.63949 0.65575 0.63925 0.70005 0 0.0867-1.2715 1.3582-1.3582 1.3582zm2.1538-2.1538c-0.044 0-0.23965-0.17886-0.71364-0.65284-0.61953-0.61952-0.65194-0.65645-0.63002-0.72814 0.0139-0.046 0.2634-0.31585 0.64132-0.69377 0.56705-0.56705 0.62669-0.61736 0.70675-0.61421 0.077 4e-3 0.16653 0.0826 0.70243 0.61852 0.37488 0.37488 0.62273 0.64373 0.63692 0.68938 0.0217 0.0713-0.0105 0.10862-0.63 0.72813-0.47399 0.47398-0.66936 0.65302-0.71366 0.65285zm2.1546-2.1429c-0.0518 0.0118-0.16692-0.0884-0.70274-0.61161-0.61664-0.60272-0.64095-0.62929-0.64082-0.72939 0-0.10233 0.0212-0.12494 1.5946-1.6983 1.4158-1.4158 1.6036-1.5943 1.6741-1.5946 0.0683 0 0.17145 0.092 0.71881 0.63932 0.46343 0.46343 0.63946 0.65579 0.63926 0.70006 1e-5 0.0762-3.1851 3.2725-3.2831 3.2948zm-19.064 14.777c-0.0947 0.0167-0.10294 0.01-0.73989-0.62725l-0.64411-0.64411 0.0207-0.0995c0.018-0.0868 0.16094-0.23786 1.1227-1.1872 1.0572-1.0432 1.1056-1.087 1.1871-1.0745 0.0679 0.0106 0.20933 0.13731 0.70117 0.62915 0.58217 0.58217 0.61647 0.62098 0.61593 0.71733 0 0.0981-0.0338 0.13519-1.0839 1.1853-0.94004 0.94003-1.0961 1.0867-1.1798 1.1007zm3.0764-3.0974c-0.0991-1e-5 -0.13275-0.029-0.71973-0.61601-0.49198-0.49198-0.6189-0.63282-0.62913-0.70115-0.0125-0.0805 0.0226-0.12097 0.63369-0.73206 0.49701-0.49701 0.66268-0.64642 0.71286-0.64686 0.0953 0 1.3531 1.2575 1.3531 1.353 0 0.0496-0.15333 0.22302-0.62347 0.70435-0.59932 0.61565-0.62712 0.63878-0.72721 0.63863zm2.1687-2.1477c-0.0948 0.0166-0.10302 0.01-0.739-0.62642-0.63601-0.63601-0.64333-0.64408-0.62641-0.739 0.0141-0.0801 0.11459-0.19337 0.61378-0.69256 0.49918-0.49918 0.61302-0.5991 0.69254-0.61377 0.0947-0.0167 0.10303-0.01 0.73899 0.62642 0.63601 0.636 0.64334 0.64408 0.62643 0.739-0.0141 0.0801-0.11458 0.19337-0.61377 0.69255-0.49919 0.49919-0.61307 0.59907-0.69256 0.61378zm2.1538-2.1538c-0.0947 0.0167-0.10302 0.01-0.739-0.62643-0.636-0.636-0.64333-0.64408-0.62642-0.73899 0.0141-0.0801 0.11459-0.19336 0.61379-0.69255 0.49918-0.49919 0.61303-0.59911 0.69255-0.61378 0.0948-0.0167 0.10302-0.01 0.73899 0.62641 0.636 0.63601 0.64333 0.64409 0.62642 0.73901-0.0141 0.0801-0.11459 0.19337-0.61377 0.69255-0.49919 0.49919-0.61307 0.59907-0.69256 0.61378zm2.1678-2.1412-0.0798 0.0342-1.3458-1.3458 0.0423-0.0943c0.0259-0.0578 0.27935-0.32548 0.65526-0.69183 0.57211-0.55812 0.61816-0.59717 0.69797-0.58446 0.0679 0.0106 0.2094 0.1376 0.70104 0.62924 0.58218 0.58219 0.61649 0.621 0.61594 0.71734 0 0.0958-0.0327 0.13391-0.6034 0.70154-0.33174 0.33023-0.63934 0.61556-0.68327 0.63435zm2.1001-2.1466c-0.0991 0-0.13274-0.029-0.71973-0.616-0.49198-0.49198-0.61885-0.63285-0.62925-0.70104-0.0126-0.0804 0.0226-0.12098 0.63369-0.73206 0.49701-0.49702 0.66267-0.64642 0.71281-0.64689 0.0953 0 1.3531 1.2575 1.3531 1.353 0 0.0496-0.15334 0.22303-0.62347 0.70436-0.59931 0.61564-0.62712 0.63878-0.7272 0.63863zm2.1687-2.1477c-0.0946 0.0165-0.10302 0.01-0.739-0.62643-0.636-0.636-0.64334-0.64408-0.62642-0.739 0.0141-0.0801 0.11458-0.19337 0.61377-0.69256 0.49919-0.49918 0.61303-0.59911 0.69256-0.61377 0.0946-0.0165 0.10302-0.01 0.739 0.62642 0.636 0.636 0.64333 0.64409 0.62642 0.739-0.0142 0.0801-0.11459 0.19337-0.61377 0.69256-0.49919 0.49919-0.61303 0.59911-0.69256 0.61378zm2.1538-2.1538c-0.0946 0.0166-0.10302 0.01-0.739-0.62643-0.63601-0.636-0.64296-0.64445-0.62643-0.739 0.0141-0.08 0.1146-0.19338 0.61378-0.69256 0.49919-0.49919 0.61303-0.5991 0.69256-0.61378 0.0946-0.0165 0.10302-0.01 0.73901 0.62642 0.636 0.63601 0.64333 0.64409 0.62642 0.73901-0.0141 0.08-0.11459 0.19337-0.61377 0.69256-0.49919 0.49918-0.61303 0.5991-0.69257 0.61378zm2.1697-2.1421c-0.11166 0.0475-0.2001-0.0244-0.84403-0.686-0.42354-0.4352-0.56736-0.59979-0.56733-0.6489 1.1e-4 -0.0511 0.21841-0.28742 0.98292-1.0631 0.85586-0.86752 0.99678-0.99903 1.0826-1.018l0.0995-0.0207 0.64413 0.64412c0.63688 0.63688 0.6438 0.64531 0.62726 0.73985-0.0145 0.0829-0.14787 0.22618-0.98212 1.0576-0.53072 0.52922-1.0003 0.97693-1.0432 0.99519zm-20.329 15.993c-0.0682-3e-5 -0.17152-0.0919-0.71888-0.63927-0.46342-0.46341-0.63924-0.65601-0.63925-0.70006 2e-5 -0.0865 1.2716-1.3581 1.3581-1.3582 0.044 0 0.23665 0.17585 0.70007 0.63926 0.54737 0.54736 0.63916 0.65082 0.63922 0.71894 0 0.0681-0.0911 0.17059-0.62992 0.7094-0.53881 0.5388-0.64145 0.62977-0.70942 0.62992zm2.0543-2.0962c-0.14545-0.0303-1.3417-1.2508-1.3199-1.3467 0.0184-0.0813 1.2616-1.3245 1.3429-1.343 0.0519-0.0118 0.16692 0.0884 0.70275 0.61161 0.61668 0.60268 0.64095 0.62928 0.64081 0.72939 0 0.0991-0.0288 0.13251-0.63291 0.73664l-0.63289 0.63289zm2.1266-2.0846c-0.0683 0-0.17157-0.0919-0.71894-0.63921-0.46341-0.46342-0.63945-0.65579-0.63925-0.70007 0-0.0865 1.2716-1.3581 1.3582-1.3582 0.044 0 0.23664 0.17584 0.70006 0.63926 0.54736 0.54736 0.63915 0.65081 0.63922 0.71893 4e-5 0.0681-0.0911 0.17061-0.62992 0.7094-0.53881 0.53881-0.64144 0.62978-0.70942 0.62993zm2.061-2.0938c-0.0802-0.0143-0.19406-0.11528-0.69985-0.62108-0.36801-0.36801-0.61282-0.63381-0.62695-0.6794-0.0215-0.0714 0.0105-0.10861 0.63001-0.72814 0.47399-0.47399 0.66934-0.65301 0.71365-0.65285 0.044 0 0.23967 0.17887 0.71366 0.65285 0.61952 0.61953 0.65192 0.65644 0.63 0.72814-0.0139 0.046-0.26417 0.31663-0.6438 0.69626-0.61304 0.61303-0.62229 0.62079-0.71677 0.60419zm2.137-2.079c-0.0639 0.0168-0.12784-0.0393-0.72259-0.63403-0.47369-0.47369-0.65264-0.66896-0.65247-0.71328 0-0.044 0.17886-0.23967 0.65284-0.71366 0.61951-0.6195 0.65644-0.65191 0.72814-0.63001 0.046 0.0139 0.31585 0.2634 0.69377 0.64132 0.56706 0.56706 0.61864 0.62541 0.6142 0.70675-4e-3 0.0772-0.0824 0.16604-0.62399 0.70628-0.37372 0.37222-0.64692 0.62592-0.68971 0.63657zm2.0564-2.0944c-0.0769-4e-3 -0.16653-0.0826-0.70243-0.61851-0.37488-0.37488-0.62272-0.64372-0.63691-0.68936-0.0217-0.0713 0.0105-0.10862 0.62999-0.72813 0.47399-0.47399 0.66932-0.65307 0.71367-0.65286 0.044 0 0.23967 0.17886 0.71366 0.65285 0.61951 0.6195 0.65191 0.65643 0.62999 0.72813-0.0138 0.046-0.2634 0.31585-0.64131 0.69376-0.56705 0.56704-0.62542 0.61865-0.70674 0.61421zm2.1245-2.0865c-0.0639 0.0168-0.12785-0.0393-0.7226-0.63402-0.47369-0.47369-0.65267-0.66893-0.65247-0.71328 0-0.044 0.17887-0.23968 0.65286-0.71367 0.61951-0.61951 0.65643-0.65191 0.72813-0.63 0.0458 0.0139 0.31138 0.25893 0.67938 0.62693 0.50581 0.50582 0.60751 0.61917 0.62097 0.69999 0.0167 0.0947 9e-3 0.10314-0.60954 0.72073-0.37803 0.37727-0.65377 0.63276-0.6966 0.64347zm2.0608-2.0858c-0.0683 4e-5 -0.17144-0.092-0.71881-0.63934-0.46341-0.46341-0.6395-0.65574-0.63926-0.70006-1.2e-4 -0.0866 1.2715-1.3582 1.3581-1.3581 0.044 0 0.23665 0.17584 0.70007 0.63926 0.54736 0.54737 0.63915 0.65082 0.63933 0.71882 0 0.068-0.0911 0.17061-0.62992 0.7094-0.53881 0.5388-0.64144 0.62977-0.7094 0.62991zm2.0543-2.0963c-0.14544-0.0303-1.3417-1.2508-1.32-1.3467 0.0184-0.0813 1.2616-1.3245 1.343-1.343 0.0519-0.0118 0.16692 0.0884 0.70275 0.61162 0.61781 0.60155 0.64095 0.62929 0.64081 0.72938 0 0.0991-0.0288 0.13251-0.63293 0.73665l-0.63289 0.63289zm2.1266-2.0846c-0.0683 0-0.17145-0.092-0.71882-0.63933-0.46342-0.46342-0.63946-0.65579-0.63926-0.70007 0-0.0867 1.2715-1.3582 1.3582-1.3582 0.044 0 0.23666 0.17585 0.70008 0.63926 0.54736 0.54737 0.63915 0.65083 0.63933 0.71882 0 0.068-0.0911 0.1706-0.62993 0.70941-0.5388 0.5388-0.64142 0.62976-0.7094 0.62992z" clip-path="url(#clipPath5898)"/>
   <path transform="translate(12.612 553.97)" d="m159.52-433.93c-0.30394 0.18762-0.6945 0.20991-1.0476 0.0596l-0.21041-0.0895-10.009-10.009-0.0724-0.19185c-0.0858-0.22742-0.0823-0.59968 8e-3 -0.84761l0.0644-0.17676 22.374-22.374 0.19417-0.0592c0.37537-0.11446 0.73617-0.051 1.0749 0.18896 0.13389 0.0948 1.6286 1.5776 5.0729 5.0321 4.6735 4.6875 4.8862 4.9048 4.9566 5.0645 0.10878 0.24701 0.11375 0.59147 0.0124 0.86671l-0.0859 0.23342-11.106 11.116c-6.4165 6.421-11.157 11.145-11.225 11.188zm21.937-22.735c0.0335-0.0987 0.0507-0.24114 0.038-0.31674l-0.0229-0.1374-4.9467-4.9607c-4.4773-4.4889-4.9605-4.9673-5.0942-5.0271-0.17412-0.0786-0.37681-0.0692-0.54395 0.0253-0.17449 0.0987-22.062 21.989-22.163 22.165-0.0986 0.17298-0.12628 0.40095-0.0662 0.54737 0.0414 0.10101 0.82168 0.89227 4.9831 5.0537l4.9339 4.9339 0.16205 0.0563c0.19464 0.0677 0.36709 0.0445 0.54218-0.0728 0.0714-0.0479 5.0769-5.0372 11.123-11.088l10.994-11zm-22.612 19.94c-0.11935 2e-5 -1.3393-1.22-1.3393-1.3393 0-0.0707 0.17854-0.25802 1.5915-1.671 1.4494-1.4494 1.5979-1.5911 1.6682-1.5842 0.0604 6e-3 0.20925 0.1398 0.70232 0.63286 0.49306 0.49306 0.62756 0.64156 0.63284 0.7023 6e-3 0.0698-0.13481 0.21874-1.5842 1.6682-1.413 1.413-1.6006 1.5912-1.671 1.5915zm4.006-4.0246c-0.0462-0.0139-0.32074-0.26829-0.70949-0.65703-0.60112-0.60112-0.63335-0.63787-0.6114-0.70953 0.0155-0.0512 1.9369-1.9893 6.0279-6.0804 5.4254-5.4254 6.0124-6.0056 6.0847-6.0052 0.11935 0 1.3393 1.22 1.3393 1.3393 0 0.072-0.58186 0.66134-6.028 6.1075-5.9337 5.9337-6.0291 6.0276-6.1032 6.0051zm12.902-12.919c-0.0801-0.0141-0.19336-0.11457-0.69255-0.61376s-0.59908-0.61307-0.61378-0.69257l-0.0169-0.0957 1.5931-1.5931c1.4145-1.4145 1.6022-1.5929 1.6726-1.5932 0.11935 1e-5 1.3393 1.22 1.3393 1.3393 0 0.0707-0.1787 0.25818-1.5932 1.6726l-1.5931 1.5931zm-19.063 14.807c-0.0441 4e-5 -0.23665-0.17585-0.70007-0.63926-0.54736-0.54736-0.63927-0.65071-0.63927-0.71889 4e-5 -0.0707 0.17723-0.2567 1.5771-1.6566 1.322-1.322 1.5908-1.5791 1.6622-1.5902 0.0803-0.0125 0.12074 0.0224 0.71677 0.6184 0.4981 0.49811 0.63351 0.64744 0.63878 0.70824 6e-3 0.0698-0.13547 0.21939-1.5937 1.6776-1.2113 1.2113-1.6164 1.6001-1.6616 1.6008zm4.0313-4.0687c-0.0459-0.014-0.31587-0.2634-0.69378-0.64132-0.56705-0.56705-0.61864-0.62541-0.61408-0.70684 4e-3 -0.077 0.0833-0.16717 0.62772-0.71163 0.53288-0.53287 0.63494-0.62327 0.70289-0.6234 0.0683-4e-5 0.17157 0.0919 0.71893 0.63921 0.46342 0.46342 0.63949 0.65575 0.63925 0.70006 0 0.044-0.17886 0.23967-0.65284 0.71365-0.61952 0.61952-0.65646 0.65194-0.72815 0.63001zm2.1766-2.1393c-0.044 0-0.23967-0.17887-0.71366-0.65285-0.61952-0.61952-0.65192-0.65644-0.63-0.72814 0.0138-0.046 0.26341-0.31587 0.64132-0.69378 0.56704-0.56705 0.6267-0.61737 0.70674-0.61421 0.077 4e-3 0.16653 0.0826 0.70243 0.61851 0.37487 0.37487 0.62273 0.64372 0.63692 0.68937 0.0217 0.0713-0.0105 0.10862-0.63002 0.72814-0.47398 0.47399-0.66934 0.65302-0.71365 0.65285zm2.1049-2.1658c-0.0861-0.0181-0.1888-0.11118-0.70585-0.64128-0.56541-0.5794-0.60454-0.62553-0.59173-0.70548 0.0106-0.0682 0.13913-0.21092 0.64048-0.71227 0.61939-0.61939 0.62843-0.62692 0.72292-0.61034 0.14358 0.0252 1.3225 1.2048 1.3225 1.3232-4e-5 0.0683-0.0924 0.17185-0.64382 0.72329l-0.64375 0.64376-0.10069-0.021zm2.1546-2.1308c-0.046-0.0138-0.31586-0.2634-0.69378-0.64133-0.56705-0.56704-0.61735-0.62668-0.6142-0.70672 4e-3 -0.0771 0.0826-0.16654 0.61852-0.70244 0.37488-0.37487 0.64373-0.62273 0.68938-0.63692 0.0713-0.0217 0.10862 0.0105 0.72814 0.63001 0.47398 0.47398 0.65305 0.66931 0.65284 0.71366 0 0.044-0.17886 0.23966-0.65284 0.71365-0.61952 0.61952-0.65644 0.65192-0.72814 0.63001zm2.1766-2.1393c-0.044 0-0.23664-0.17583-0.70005-0.63924-0.54737-0.54737-0.63916-0.65082-0.63934-0.71882 0-0.11934 1.22-1.3393 1.3393-1.3393 0.0683 0 0.17146 0.092 0.71883 0.63934 0.46341 0.46341 0.63949 0.65575 0.63925 0.70005 0 0.0867-1.2715 1.3582-1.3582 1.3582zm2.1538-2.1538c-0.044 0-0.23965-0.17886-0.71364-0.65284-0.61953-0.61952-0.65194-0.65645-0.63002-0.72814 0.0139-0.046 0.2634-0.31585 0.64132-0.69377 0.56705-0.56705 0.62669-0.61736 0.70675-0.61421 0.077 4e-3 0.16653 0.0826 0.70243 0.61852 0.37488 0.37488 0.62273 0.64373 0.63692 0.68938 0.0217 0.0713-0.0105 0.10862-0.63 0.72813-0.47399 0.47398-0.66936 0.65302-0.71366 0.65285zm2.1546-2.1429c-0.0518 0.0118-0.16692-0.0884-0.70274-0.61161-0.61664-0.60272-0.64095-0.62929-0.64082-0.72939 0-0.10233 0.0212-0.12494 1.5946-1.6983 1.4158-1.4158 1.6036-1.5943 1.6741-1.5946 0.0683 0 0.17145 0.092 0.71881 0.63932 0.46343 0.46343 0.63946 0.65579 0.63926 0.70006 1e-5 0.0762-3.1851 3.2725-3.2831 3.2948zm-19.064 14.777c-0.0947 0.0167-0.10294 0.01-0.73989-0.62725l-0.64411-0.64411 0.0207-0.0995c0.018-0.0868 0.16094-0.23786 1.1227-1.1872 1.0572-1.0432 1.1056-1.087 1.1871-1.0745 0.0679 0.0106 0.20933 0.13731 0.70117 0.62915 0.58217 0.58217 0.61647 0.62098 0.61593 0.71733 0 0.0981-0.0338 0.13519-1.0839 1.1853-0.94004 0.94003-1.0961 1.0867-1.1798 1.1007zm3.0764-3.0974c-0.0991-1e-5 -0.13275-0.029-0.71973-0.61601-0.49198-0.49198-0.6189-0.63282-0.62913-0.70115-0.0125-0.0805 0.0226-0.12097 0.63369-0.73206 0.49701-0.49701 0.66268-0.64642 0.71286-0.64686 0.0953 0 1.3531 1.2575 1.3531 1.353 0 0.0496-0.15333 0.22302-0.62347 0.70435-0.59932 0.61565-0.62712 0.63878-0.72721 0.63863zm2.1687-2.1477c-0.0948 0.0166-0.10302 0.01-0.739-0.62642-0.63601-0.63601-0.64333-0.64408-0.62641-0.739 0.0141-0.0801 0.11459-0.19337 0.61378-0.69256 0.49918-0.49918 0.61302-0.5991 0.69254-0.61377 0.0947-0.0167 0.10303-0.01 0.73899 0.62642 0.63601 0.636 0.64334 0.64408 0.62643 0.739-0.0141 0.0801-0.11458 0.19337-0.61377 0.69255-0.49919 0.49919-0.61307 0.59907-0.69256 0.61378zm2.1538-2.1538c-0.0947 0.0167-0.10302 0.01-0.739-0.62643-0.636-0.636-0.64333-0.64408-0.62642-0.73899 0.0141-0.0801 0.11459-0.19336 0.61379-0.69255 0.49918-0.49919 0.61303-0.59911 0.69255-0.61378 0.0948-0.0167 0.10302-0.01 0.73899 0.62641 0.636 0.63601 0.64333 0.64409 0.62642 0.73901-0.0141 0.0801-0.11459 0.19337-0.61377 0.69255-0.49919 0.49919-0.61307 0.59907-0.69256 0.61378zm2.1678-2.1412-0.0798 0.0342-1.3458-1.3458 0.0423-0.0943c0.0259-0.0578 0.27935-0.32548 0.65526-0.69183 0.57211-0.55812 0.61816-0.59717 0.69797-0.58446 0.0679 0.0106 0.2094 0.1376 0.70104 0.62924 0.58218 0.58219 0.61649 0.621 0.61594 0.71734 0 0.0958-0.0327 0.13391-0.6034 0.70154-0.33174 0.33023-0.63934 0.61556-0.68327 0.63435zm2.1001-2.1466c-0.0991 0-0.13274-0.029-0.71973-0.616-0.49198-0.49198-0.61885-0.63285-0.62925-0.70104-0.0126-0.0804 0.0226-0.12098 0.63369-0.73206 0.49701-0.49702 0.66267-0.64642 0.71281-0.64689 0.0953 0 1.3531 1.2575 1.3531 1.353 0 0.0496-0.15334 0.22303-0.62347 0.70436-0.59931 0.61564-0.62712 0.63878-0.7272 0.63863zm2.1687-2.1477c-0.0946 0.0165-0.10302 0.01-0.739-0.62643-0.636-0.636-0.64334-0.64408-0.62642-0.739 0.0141-0.0801 0.11458-0.19337 0.61377-0.69256 0.49919-0.49918 0.61303-0.59911 0.69256-0.61377 0.0946-0.0165 0.10302-0.01 0.739 0.62642 0.636 0.636 0.64333 0.64409 0.62642 0.739-0.0142 0.0801-0.11459 0.19337-0.61377 0.69256-0.49919 0.49919-0.61303 0.59911-0.69256 0.61378zm2.1538-2.1538c-0.0946 0.0166-0.10302 0.01-0.739-0.62643-0.63601-0.636-0.64296-0.64445-0.62643-0.739 0.0141-0.08 0.1146-0.19338 0.61378-0.69256 0.49919-0.49919 0.61303-0.5991 0.69256-0.61378 0.0946-0.0165 0.10302-0.01 0.73901 0.62642 0.636 0.63601 0.64333 0.64409 0.62642 0.73901-0.0141 0.08-0.11459 0.19337-0.61377 0.69256-0.49919 0.49918-0.61303 0.5991-0.69257 0.61378zm2.1697-2.1421c-0.11166 0.0475-0.2001-0.0244-0.84403-0.686-0.42354-0.4352-0.56736-0.59979-0.56733-0.6489 1.1e-4 -0.0511 0.21841-0.28742 0.98292-1.0631 0.85586-0.86752 0.99678-0.99903 1.0826-1.018l0.0995-0.0207 0.64413 0.64412c0.63688 0.63688 0.6438 0.64531 0.62726 0.73985-0.0145 0.0829-0.14787 0.22618-0.98212 1.0576-0.53072 0.52922-1.0003 0.97693-1.0432 0.99519zm-20.329 15.993c-0.0682-3e-5 -0.17152-0.0919-0.71888-0.63927-0.46342-0.46341-0.63924-0.65601-0.63925-0.70006 2e-5 -0.0865 1.2716-1.3581 1.3581-1.3582 0.044 0 0.23665 0.17585 0.70007 0.63926 0.54737 0.54736 0.63916 0.65082 0.63922 0.71894 0 0.0681-0.0911 0.17059-0.62992 0.7094-0.53881 0.5388-0.64145 0.62977-0.70942 0.62992zm2.0543-2.0962c-0.14545-0.0303-1.3417-1.2508-1.3199-1.3467 0.0184-0.0813 1.2616-1.3245 1.3429-1.343 0.0519-0.0118 0.16692 0.0884 0.70275 0.61161 0.61668 0.60268 0.64095 0.62928 0.64081 0.72939 0 0.0991-0.0288 0.13251-0.63291 0.73664l-0.63289 0.63289zm2.1266-2.0846c-0.0683 0-0.17157-0.0919-0.71894-0.63921-0.46341-0.46342-0.63945-0.65579-0.63925-0.70007 0-0.0865 1.2716-1.3581 1.3582-1.3582 0.044 0 0.23664 0.17584 0.70006 0.63926 0.54736 0.54736 0.63915 0.65081 0.63922 0.71893 4e-5 0.0681-0.0911 0.17061-0.62992 0.7094-0.53881 0.53881-0.64144 0.62978-0.70942 0.62993zm2.061-2.0938c-0.0802-0.0143-0.19406-0.11528-0.69985-0.62108-0.36801-0.36801-0.61282-0.63381-0.62695-0.6794-0.0215-0.0714 0.0105-0.10861 0.63001-0.72814 0.47399-0.47399 0.66934-0.65301 0.71365-0.65285 0.044 0 0.23967 0.17887 0.71366 0.65285 0.61952 0.61953 0.65192 0.65644 0.63 0.72814-0.0139 0.046-0.26417 0.31663-0.6438 0.69626-0.61304 0.61303-0.62229 0.62079-0.71677 0.60419zm2.137-2.079c-0.0639 0.0168-0.12784-0.0393-0.72259-0.63403-0.47369-0.47369-0.65264-0.66896-0.65247-0.71328 0-0.044 0.17886-0.23967 0.65284-0.71366 0.61951-0.6195 0.65644-0.65191 0.72814-0.63001 0.046 0.0139 0.31585 0.2634 0.69377 0.64132 0.56706 0.56706 0.61864 0.62541 0.6142 0.70675-4e-3 0.0772-0.0824 0.16604-0.62399 0.70628-0.37372 0.37222-0.64692 0.62592-0.68971 0.63657zm2.0564-2.0944c-0.0769-4e-3 -0.16653-0.0826-0.70243-0.61851-0.37488-0.37488-0.62272-0.64372-0.63691-0.68936-0.0217-0.0713 0.0105-0.10862 0.62999-0.72813 0.47399-0.47399 0.66932-0.65307 0.71367-0.65286 0.044 0 0.23967 0.17886 0.71366 0.65285 0.61951 0.6195 0.65191 0.65643 0.62999 0.72813-0.0138 0.046-0.2634 0.31585-0.64131 0.69376-0.56705 0.56704-0.62542 0.61865-0.70674 0.61421zm2.1245-2.0865c-0.0639 0.0168-0.12785-0.0393-0.7226-0.63402-0.47369-0.47369-0.65267-0.66893-0.65247-0.71328 0-0.044 0.17887-0.23968 0.65286-0.71367 0.61951-0.61951 0.65643-0.65191 0.72813-0.63 0.0458 0.0139 0.31138 0.25893 0.67938 0.62693 0.50581 0.50582 0.60751 0.61917 0.62097 0.69999 0.0167 0.0947 9e-3 0.10314-0.60954 0.72073-0.37803 0.37727-0.65377 0.63276-0.6966 0.64347zm2.0608-2.0858c-0.0683 4e-5 -0.17144-0.092-0.71881-0.63934-0.46341-0.46341-0.6395-0.65574-0.63926-0.70006-1.2e-4 -0.0866 1.2715-1.3582 1.3581-1.3581 0.044 0 0.23665 0.17584 0.70007 0.63926 0.54736 0.54737 0.63915 0.65082 0.63933 0.71882 0 0.068-0.0911 0.17061-0.62992 0.7094-0.53881 0.5388-0.64144 0.62977-0.7094 0.62991zm2.0543-2.0963c-0.14544-0.0303-1.3417-1.2508-1.32-1.3467 0.0184-0.0813 1.2616-1.3245 1.343-1.343 0.0519-0.0118 0.16692 0.0884 0.70275 0.61162 0.61781 0.60155 0.64095 0.62929 0.64081 0.72938 0 0.0991-0.0288 0.13251-0.63293 0.73665l-0.63289 0.63289zm2.1266-2.0846c-0.0683 0-0.17145-0.092-0.71882-0.63933-0.46342-0.46342-0.63946-0.65579-0.63926-0.70007 0-0.0867 1.2715-1.3582 1.3582-1.3582 0.044 0 0.23666 0.17585 0.70008 0.63926 0.54736 0.54737 0.63915 0.65083 0.63933 0.71882 0 0.068-0.0911 0.1706-0.62993 0.70941-0.5388 0.5388-0.64142 0.62976-0.7094 0.62992z" clip-path="url(#clipPath5894)"/>
   <path transform="translate(12.612 553.97)" d="m119.59-432.7c-0.18762-0.30394-0.20991-0.6945-0.0596-1.0476l0.0895-0.21041 10.009-10.009 0.19185-0.0724c0.22742-0.0858 0.59968-0.0823 0.84761 8e-3l0.17676 0.0644 22.374 22.374 0.0592 0.19417c0.11446 0.37537 0.051 0.73617-0.18896 1.0749-0.0948 0.13389-1.5776 1.6286-5.0321 5.0729-4.6875 4.6735-4.9048 4.8862-5.0645 4.9566-0.24701 0.10878-0.59147 0.11375-0.86671 0.0124l-0.23342-0.0859-11.116-11.106c-6.421-6.4165-11.145-11.157-11.188-11.225zm22.735 21.937c0.0987 0.0335 0.24114 0.0507 0.31674 0.038l0.1374-0.0229 4.9607-4.9467c4.4889-4.4773 4.9673-4.9605 5.0271-5.0942 0.0786-0.17412 0.0692-0.37681-0.0253-0.54395-0.0987-0.17449-21.989-22.062-22.165-22.163-0.17298-0.0986-0.40095-0.12628-0.54737-0.0662-0.10101 0.0414-0.89227 0.82168-5.0537 4.9831l-4.9339 4.9339-0.0563 0.16205c-0.0677 0.19464-0.0445 0.36709 0.0728 0.54218 0.0479 0.0714 5.0372 5.0769 11.088 11.123l11 10.994zm-19.94-22.612c-2e-5 -0.11935 1.22-1.3393 1.3393-1.3393 0.0707 0 0.25802 0.17854 1.671 1.5915 1.4494 1.4494 1.5911 1.5979 1.5842 1.6682-6e-3 0.0604-0.1398 0.20925-0.63286 0.70232-0.49306 0.49306-0.64156 0.62756-0.7023 0.63284-0.0698 6e-3 -0.21874-0.13481-1.6682-1.5842-1.413-1.413-1.5912-1.6006-1.5915-1.671zm4.0246 4.006c0.0139-0.0462 0.26829-0.32074 0.65703-0.70949 0.60112-0.60112 0.63787-0.63335 0.70953-0.6114 0.0512 0.0155 1.9893 1.9369 6.0804 6.0279 5.4254 5.4254 6.0056 6.0124 6.0052 6.0847 0 0.11935-1.22 1.3393-1.3393 1.3393-0.072 0-0.66134-0.58186-6.1075-6.028-5.9337-5.9337-6.0276-6.0291-6.0051-6.1032zm12.919 12.902c0.0141-0.0801 0.11457-0.19336 0.61376-0.69255s0.61307-0.59908 0.69257-0.61378l0.0957-0.0169 1.5931 1.5931c1.4145 1.4145 1.5929 1.6022 1.5932 1.6726-1e-5 0.11935-1.22 1.3393-1.3393 1.3393-0.0707 0-0.25818-0.1787-1.6726-1.5932l-1.5931-1.5931zm-14.807-19.063c-4e-5 -0.0441 0.17585-0.23665 0.63926-0.70007 0.54736-0.54736 0.65071-0.63927 0.71889-0.63927 0.0707 4e-5 0.2567 0.17723 1.6566 1.5771 1.322 1.322 1.5791 1.5908 1.5902 1.6622 0.0125 0.0803-0.0224 0.12074-0.6184 0.71677-0.49811 0.4981-0.64744 0.63351-0.70824 0.63878-0.0698 6e-3 -0.21939-0.13547-1.6776-1.5937-1.2113-1.2113-1.6001-1.6164-1.6008-1.6616zm4.0687 4.0313c0.014-0.0459 0.2634-0.31587 0.64132-0.69378 0.56705-0.56705 0.62541-0.61864 0.70684-0.61408 0.077 4e-3 0.16717 0.0833 0.71163 0.62772 0.53287 0.53288 0.62327 0.63494 0.6234 0.70289 4e-5 0.0683-0.0919 0.17157-0.63921 0.71893-0.46342 0.46342-0.65575 0.63949-0.70006 0.63925-0.044 0-0.23967-0.17886-0.71365-0.65284-0.61952-0.61952-0.65194-0.65646-0.63001-0.72815zm2.1393 2.1766c0-0.044 0.17887-0.23967 0.65285-0.71366 0.61952-0.61952 0.65644-0.65192 0.72814-0.63 0.046 0.0138 0.31587 0.26341 0.69378 0.64132 0.56705 0.56704 0.61737 0.6267 0.61421 0.70674-4e-3 0.077-0.0826 0.16653-0.61851 0.70243-0.37487 0.37487-0.64372 0.62273-0.68937 0.63692-0.0713 0.0217-0.10862-0.0105-0.72814-0.63002-0.47399-0.47398-0.65302-0.66934-0.65285-0.71365zm2.1658 2.1049c0.0181-0.0861 0.11118-0.1888 0.64128-0.70585 0.5794-0.56541 0.62553-0.60454 0.70548-0.59173 0.0682 0.0106 0.21092 0.13913 0.71227 0.64048 0.61939 0.61939 0.62692 0.62843 0.61034 0.72292-0.0252 0.14358-1.2048 1.3225-1.3232 1.3225-0.0683-4e-5 -0.17185-0.0924-0.72329-0.64382l-0.64376-0.64375 0.021-0.10069zm2.1308 2.1546c0.0138-0.046 0.2634-0.31586 0.64133-0.69378 0.56704-0.56705 0.62668-0.61735 0.70672-0.6142 0.0771 4e-3 0.16654 0.0826 0.70244 0.61852 0.37487 0.37488 0.62273 0.64373 0.63692 0.68938 0.0217 0.0713-0.0105 0.10862-0.63001 0.72814-0.47398 0.47398-0.66931 0.65305-0.71366 0.65284-0.044 0-0.23966-0.17886-0.71365-0.65284-0.61952-0.61952-0.65192-0.65644-0.63001-0.72814zm2.1393 2.1766c0-0.044 0.17583-0.23664 0.63924-0.70005 0.54737-0.54737 0.65082-0.63916 0.71882-0.63934 0.11934 0 1.3393 1.22 1.3393 1.3393 0 0.0683-0.092 0.17146-0.63934 0.71883-0.46341 0.46341-0.65575 0.63949-0.70005 0.63925-0.0867 0-1.3582-1.2715-1.3582-1.3582zm2.1538 2.1538c0-0.044 0.17886-0.23965 0.65284-0.71364 0.61952-0.61953 0.65645-0.65194 0.72814-0.63002 0.046 0.0139 0.31585 0.2634 0.69377 0.64132 0.56705 0.56705 0.61736 0.62669 0.61421 0.70675-4e-3 0.077-0.0826 0.16653-0.61852 0.70243-0.37488 0.37488-0.64373 0.62273-0.68938 0.63692-0.0713 0.0217-0.10862-0.0105-0.72813-0.63-0.47398-0.47399-0.65302-0.66936-0.65285-0.71366zm2.1429 2.1546c-0.0118-0.0518 0.0884-0.16692 0.61161-0.70274 0.60272-0.61664 0.62929-0.64095 0.72939-0.64082 0.10233 0 0.12494 0.0212 1.6983 1.5946 1.4158 1.4158 1.5943 1.6036 1.5946 1.6741 0 0.0683-0.092 0.17145-0.63932 0.71881-0.46343 0.46343-0.65579 0.63946-0.70006 0.63926-0.0762 1e-5 -3.2725-3.1851-3.2948-3.2831zm-14.777-19.064c-0.0167-0.0947-0.01-0.10294 0.62725-0.73989l0.64411-0.64411 0.0995 0.0207c0.0868 0.018 0.23786 0.16094 1.1872 1.1227 1.0432 1.0572 1.087 1.1056 1.0745 1.1871-0.0106 0.0679-0.13731 0.20933-0.62915 0.70117-0.58217 0.58217-0.62098 0.61647-0.71733 0.61593-0.0981 0-0.13519-0.0338-1.1853-1.0839-0.94003-0.94004-1.0867-1.0961-1.1007-1.1798zm3.0974 3.0764c1e-5 -0.0991 0.029-0.13275 0.61601-0.71973 0.49198-0.49198 0.63282-0.6189 0.70115-0.62913 0.0805-0.0125 0.12097 0.0226 0.73206 0.63369 0.49701 0.49701 0.64642 0.66268 0.64686 0.71286 0 0.0953-1.2575 1.3531-1.353 1.3531-0.0496 0-0.22302-0.15333-0.70435-0.62347-0.61565-0.59932-0.63878-0.62712-0.63863-0.72721zm2.1477 2.1687c-0.0166-0.0948-0.01-0.10302 0.62642-0.739 0.63601-0.63601 0.64408-0.64333 0.739-0.62641 0.0801 0.0141 0.19337 0.11459 0.69256 0.61378 0.49918 0.49918 0.5991 0.61302 0.61377 0.69254 0.0167 0.0947 0.01 0.10303-0.62642 0.73899-0.636 0.63601-0.64408 0.64334-0.739 0.62643-0.0801-0.0141-0.19337-0.11458-0.69255-0.61377-0.49919-0.49919-0.59907-0.61307-0.61378-0.69256zm2.1538 2.1538c-0.0167-0.0947-0.01-0.10302 0.62643-0.739 0.636-0.636 0.64408-0.64333 0.73899-0.62642 0.0801 0.0141 0.19336 0.11459 0.69255 0.61379 0.49919 0.49918 0.59911 0.61303 0.61378 0.69255 0.0167 0.0948 0.01 0.10302-0.62641 0.73899-0.63601 0.636-0.64409 0.64333-0.73901 0.62642-0.0801-0.0141-0.19337-0.11459-0.69255-0.61377-0.49919-0.49919-0.59907-0.61307-0.61378-0.69256zm2.1412 2.1678-0.0342-0.0798 1.3458-1.3458 0.0943 0.0423c0.0578 0.0259 0.32548 0.27935 0.69183 0.65526 0.55812 0.57211 0.59717 0.61816 0.58446 0.69797-0.0106 0.0679-0.1376 0.2094-0.62924 0.70104-0.58219 0.58218-0.621 0.61649-0.71734 0.61594-0.0958 0-0.13391-0.0327-0.70154-0.6034-0.33023-0.33174-0.61556-0.63934-0.63435-0.68327zm2.1466 2.1001c0-0.0991 0.029-0.13274 0.616-0.71973 0.49198-0.49198 0.63285-0.61885 0.70104-0.62925 0.0804-0.0126 0.12098 0.0226 0.73206 0.63369 0.49702 0.49701 0.64642 0.66267 0.64689 0.71281 0 0.0953-1.2575 1.3531-1.353 1.3531-0.0496 0-0.22303-0.15334-0.70436-0.62347-0.61564-0.59931-0.63878-0.62712-0.63863-0.7272zm2.1477 2.1687c-0.0165-0.0946-0.01-0.10302 0.62643-0.739 0.636-0.636 0.64408-0.64334 0.739-0.62642 0.0801 0.0141 0.19337 0.11458 0.69256 0.61377 0.49918 0.49919 0.59911 0.61303 0.61377 0.69256 0.0165 0.0946 0.01 0.10302-0.62642 0.739-0.636 0.636-0.64409 0.64333-0.739 0.62642-0.0801-0.0142-0.19337-0.11459-0.69256-0.61377-0.49919-0.49919-0.59911-0.61303-0.61378-0.69256zm2.1538 2.1538c-0.0166-0.0946-0.01-0.10302 0.62643-0.739 0.636-0.63601 0.64445-0.64296 0.739-0.62643 0.08 0.0141 0.19338 0.1146 0.69256 0.61378 0.49919 0.49919 0.5991 0.61303 0.61378 0.69256 0.0165 0.0946 0.01 0.10302-0.62642 0.73901-0.63601 0.636-0.64409 0.64333-0.73901 0.62642-0.08-0.0141-0.19337-0.11459-0.69256-0.61377-0.49918-0.49919-0.5991-0.61303-0.61378-0.69257zm2.1421 2.1697c-0.0475-0.11166 0.0244-0.2001 0.686-0.84403 0.4352-0.42354 0.59979-0.56736 0.6489-0.56733 0.0511 1.1e-4 0.28742 0.21841 1.0631 0.98292 0.86752 0.85586 0.99903 0.99678 1.018 1.0826l0.0207 0.0995-0.64412 0.64413c-0.63688 0.63688-0.64531 0.6438-0.73985 0.62726-0.0829-0.0145-0.22618-0.14787-1.0576-0.98212-0.52922-0.53072-0.97693-1.0003-0.99519-1.0432zm-15.993-20.329c3e-5 -0.0682 0.0919-0.17152 0.63927-0.71888 0.46341-0.46342 0.65601-0.63924 0.70006-0.63925 0.0865 2e-5 1.3581 1.2716 1.3582 1.3581 0 0.044-0.17585 0.23665-0.63926 0.70007-0.54736 0.54737-0.65082 0.63916-0.71894 0.63922-0.0681 0-0.17059-0.0911-0.7094-0.62992-0.5388-0.53881-0.62977-0.64145-0.62992-0.70942zm2.0962 2.0543c0.0303-0.14545 1.2508-1.3417 1.3467-1.3199 0.0813 0.0184 1.3245 1.2616 1.343 1.3429 0.0118 0.0519-0.0884 0.16692-0.61161 0.70275-0.60268 0.61668-0.62928 0.64095-0.72939 0.64081-0.0991 0-0.13251-0.0288-0.73664-0.63291l-0.63289-0.63289zm2.0846 2.1266c0-0.0683 0.0919-0.17157 0.63921-0.71894 0.46342-0.46341 0.65579-0.63945 0.70007-0.63925 0.0865 0 1.3581 1.2716 1.3582 1.3582 0 0.044-0.17584 0.23664-0.63926 0.70006-0.54736 0.54736-0.65081 0.63915-0.71893 0.63922-0.0681 4e-5 -0.17061-0.0911-0.7094-0.62992-0.53881-0.53881-0.62978-0.64144-0.62993-0.70942zm2.0938 2.061c0.0143-0.0802 0.11528-0.19406 0.62108-0.69985 0.36801-0.36801 0.63381-0.61282 0.6794-0.62695 0.0714-0.0215 0.10861 0.0105 0.72814 0.63001 0.47399 0.47399 0.65301 0.66934 0.65285 0.71365 0 0.044-0.17887 0.23967-0.65285 0.71366-0.61953 0.61952-0.65644 0.65192-0.72814 0.63-0.046-0.0139-0.31663-0.26417-0.69626-0.6438-0.61303-0.61304-0.62079-0.62229-0.60419-0.71677zm2.079 2.137c-0.0168-0.0639 0.0393-0.12784 0.63403-0.72259 0.47369-0.47369 0.66896-0.65264 0.71328-0.65247 0.044 0 0.23967 0.17886 0.71366 0.65284 0.6195 0.61951 0.65191 0.65644 0.63001 0.72814-0.0139 0.046-0.2634 0.31585-0.64132 0.69377-0.56706 0.56706-0.62541 0.61864-0.70675 0.6142-0.0772-4e-3 -0.16604-0.0824-0.70628-0.62399-0.37222-0.37372-0.62592-0.64692-0.63657-0.68971zm2.0944 2.0564c4e-3 -0.0769 0.0826-0.16653 0.61851-0.70243 0.37488-0.37488 0.64372-0.62272 0.68936-0.63691 0.0713-0.0217 0.10862 0.0105 0.72813 0.62999 0.47399 0.47399 0.65307 0.66932 0.65286 0.71367 0 0.044-0.17886 0.23967-0.65285 0.71366-0.6195 0.61951-0.65643 0.65191-0.72813 0.62999-0.046-0.0138-0.31585-0.2634-0.69376-0.64131-0.56704-0.56705-0.61865-0.62542-0.61421-0.70674zm2.0865 2.1245c-0.0168-0.0639 0.0393-0.12785 0.63402-0.7226 0.47369-0.47369 0.66893-0.65267 0.71328-0.65247 0.044 0 0.23968 0.17887 0.71367 0.65286 0.61951 0.61951 0.65191 0.65643 0.63 0.72813-0.0139 0.0458-0.25893 0.31138-0.62693 0.67938-0.50582 0.50581-0.61917 0.60751-0.69999 0.62097-0.0947 0.0167-0.10314 9e-3 -0.72073-0.60954-0.37727-0.37803-0.63276-0.65377-0.64347-0.6966zm2.0858 2.0608c-4e-5 -0.0683 0.092-0.17144 0.63934-0.71881 0.46341-0.46341 0.65574-0.6395 0.70006-0.63926 0.0866-1.2e-4 1.3582 1.2715 1.3581 1.3581 0 0.044-0.17584 0.23665-0.63926 0.70007-0.54737 0.54736-0.65082 0.63915-0.71882 0.63933-0.068 0-0.17061-0.0911-0.7094-0.62992-0.5388-0.53881-0.62977-0.64144-0.62991-0.7094zm2.0963 2.0543c0.0303-0.14544 1.2508-1.3417 1.3467-1.32 0.0813 0.0184 1.3245 1.2616 1.343 1.343 0.0118 0.0519-0.0884 0.16692-0.61162 0.70275-0.60155 0.61781-0.62929 0.64095-0.72938 0.64081-0.0991 0-0.13251-0.0288-0.73665-0.63293l-0.63289-0.63289zm2.0846 2.1266c0-0.0683 0.092-0.17145 0.63933-0.71882 0.46342-0.46342 0.65579-0.63946 0.70007-0.63926 0.0867 0 1.3582 1.2715 1.3582 1.3582 0 0.044-0.17585 0.23666-0.63926 0.70008-0.54737 0.54736-0.65083 0.63915-0.71882 0.63933-0.068 0-0.1706-0.0911-0.70941-0.62993-0.5388-0.5388-0.62976-0.64142-0.62992-0.7094z" clip-path="url(#clipPath5890)"/>
  </g>
 </g>
</svg>
