<?xml version="1.0" encoding="UTF-8" standalone="no"?>
<!-- Created with Inkscape (http://www.inkscape.org/) -->

<svg
   width="132.29167mm"
   height="157.18811mm"
   viewBox="0 0 132.29167 157.18811"
   version="1.1"
   id="svg5"
   inkscape:version="1.1.2 (b8e25be833, 2022-02-05)"
   sodipodi:docname="nicsvg.svg"
   xmlns:inkscape="http://www.inkscape.org/namespaces/inkscape"
   xmlns:sodipodi="http://sodipodi.sourceforge.net/DTD/sodipodi-0.dtd"
   xmlns="http://www.w3.org/2000/svg"
   xmlns:svg="http://www.w3.org/2000/svg">
  <sodipodi:namedview
     id="namedview7"
     pagecolor="#505050"
     bordercolor="#eeeeee"
     borderopacity="1"
     inkscape:pageshadow="0"
     inkscape:pageopacity="0"
     inkscape:pagecheckerboard="0"
     inkscape:document-units="mm"
     showgrid="true"
     inkscape:snap-global="false"
     inkscape:zoom="0.16"
     inkscape:cx="1528.125"
     inkscape:cy="1981.25"
     inkscape:window-width="1920"
     inkscape:window-height="1057"
     inkscape:window-x="-8"
     inkscape:window-y="-8"
     inkscape:window-maximized="1"
     inkscape:current-layer="g1632"
     fit-margin-top="0"
     fit-margin-left="0"
     fit-margin-right="0"
     fit-margin-bottom="0">
    <inkscape:grid
       type="xygrid"
       id="grid1568"
       originx="2068.1951"
       originy="26.60889" />
  </sodipodi:namedview>
  <defs
     id="defs2" />
  <g
     inkscape:label="Layer 1"
     inkscape:groupmode="layer"
     id="layer1"
     style="display:inline"
     transform="translate(3777.7212,743.40084)">
    <g
       id="g1632"
       transform="translate(279.80347,125.27236)">
      <g
         id="g30206-9-3-3"
         transform="matrix(0.3646962,0,0,0.36469604,-3303.5478,-567.5289)"
         inkscape:export-filename="C:\Users\Nicanor\Desktop\new pic.png"
         inkscape:export-xdpi="96"
         inkscape:export-ydpi="96"
         style="display:inline;stroke-width:1.65512;stroke-miterlimit:4;stroke-dasharray:none">
        <g
           style="display:inline;stroke-width:0.383592;stroke-miterlimit:4;stroke-dasharray:none"
           inkscape:label="Back Hair"
           id="layer7-9-7-7-0"
           transform="matrix(4.3147931,0,0,4.3147931,-1610.4135,574.76046)">
          <path
             inkscape:connector-curvature="0"
             id="path858-62-5-6-6"
             d="m -52.396948,-321.36905 c 0,0 3.449032,-1.46465 7.465029,2.3151 4.015996,3.77976 4.724701,7.65403 4.488468,10.48885 -0.236236,2.83483 -3.071059,7.98476 -4.771951,8.50445 -1.700892,0.51972 -7.181546,-21.3084 -7.181546,-21.3084 z"
             style="display:inline;fill:#000000;fill-opacity:1;stroke:#000000;stroke-width:0.383592;stroke-linecap:butt;stroke-linejoin:miter;stroke-miterlimit:4;stroke-dasharray:none;stroke-opacity:1" />
        </g>
        <g
           style="display:inline;stroke-width:0.383592;stroke-miterlimit:4;stroke-dasharray:none"
           inkscape:label="Clothing"
           id="layer14-5-0-4-7"
           transform="matrix(4.3147931,0,0,4.3147931,-1610.4135,574.76046)">
          <path
             sodipodi:nodetypes="cscccccc"
             inkscape:connector-curvature="0"
             id="path1291-3-4-6-6"
             d="m -47.039437,-278.16402 c 0,0 3.735059,0.72631 6.541389,1.92903 2.806329,1.20272 8.308189,6.35096 11.515423,8.08821 3.207234,1.73726 5.472506,29.13876 5.850483,35.94233 0,0 -0.377977,3.59077 0.755952,5.10267 0,0 -10.129762,-3.55298 -14.854464,-2.04107 -4.724703,1.5119 -14.268602,0.47247 -14.268602,0.47247 z"
             style="fill:#8f532e;fill-opacity:1;stroke:#000000;stroke-width:0.383592;stroke-linecap:butt;stroke-linejoin:miter;stroke-miterlimit:4;stroke-dasharray:none;stroke-opacity:1" />
          <path
             sodipodi:nodetypes="ccccccc"
             inkscape:connector-curvature="0"
             id="path1289-25-1-0-6"
             d="m -77.201635,-278.56323 -3.212798,51.68824 6.646764,1.17283 11.893144,-1.66457 9.9028,0.96421 2.362351,-52.6332 z"
             style="fill:#070707;fill-opacity:1;stroke:#000000;stroke-width:0.383592;stroke-linecap:butt;stroke-linejoin:miter;stroke-miterlimit:4;stroke-dasharray:none;stroke-opacity:1" />
          <path
             inkscape:connector-curvature="0"
             id="path1283-05-7-6-5"
             d="m -84.005207,-273.83853 c 0,0 -4.441219,2.17336 -6.80357,4.15774 -2.362351,1.98437 -7.276042,3.49628 -8.126489,4.34673 -0.850445,0.85044 -4.230774,18.44058 -5.166214,23.25143 -0.93544,4.81085 -1.60362,11.62622 -1.60362,11.62622 0,0 8.01809,1.06908 11.492593,0 3.474503,-1.06907 10.95805,1.60362 10.95805,1.60362 l 5.078121,-44.76765 z"
             style="fill:#925a35;fill-opacity:1;stroke:#000000;stroke-width:0.383592;stroke-linecap:butt;stroke-linejoin:miter;stroke-miterlimit:4;stroke-dasharray:none;stroke-opacity:1" />
          <path
             sodipodi:nodetypes="ccccccccscsscccc"
             inkscape:connector-curvature="0"
             id="path1281-20-2-7-2"
             d="m -74.167293,-284.44486 c 0,0 -4.677216,4.81087 -7.015823,6.1472 -2.33861,1.33635 -4.610399,4.61041 -4.610399,4.61041 l 4.075858,3.87541 c 0,0 -7.082642,1.46997 -7.483546,2.27179 -0.400905,0.80179 -0.06682,17.03843 0.734991,20.7802 0.801809,3.74178 2.00452,18.17433 2.00452,18.17433 l 8.552628,3.60814 c 0,0 0.140464,-11.91398 0.707429,-16.3552 0.566965,-4.44122 1.039434,-14.45759 1.133928,-16.25298 0.0945,-1.79538 1.039434,-12.28422 1.039434,-13.41815 0,-1.13392 -0.241507,-3.20137 0.259624,-6.14134 0.501131,-2.93997 0.342776,-3.30807 0.354587,-3.57974 0.0118,-0.27168 0.09449,-1.7127 0.153554,-1.88987 0.05906,-0.17719 0.318918,-1.05127 0.330729,-1.92532 z"
             style="fill:#9b613c;fill-opacity:1;stroke:#000000;stroke-width:0.383592;stroke-linecap:butt;stroke-linejoin:miter;stroke-miterlimit:4;stroke-dasharray:none;stroke-opacity:1" />
          <path
             sodipodi:nodetypes="csc"
             inkscape:connector-curvature="0"
             id="path1285-9-2-4-0"
             d="m -93.831173,-230.53839 c 0,0 -0.982689,-12.74695 -0.581785,-16.62236 0.400905,-3.87541 0.133633,-10.22306 0.133633,-10.22306"
             style="fill:none;stroke:#000000;stroke-width:0.383592;stroke-linecap:butt;stroke-linejoin:miter;stroke-miterlimit:4;stroke-dasharray:none;stroke-opacity:1" />
          <path
             inkscape:connector-curvature="0"
             id="path1287-94-4-6-0"
             d="m -51.168527,-283.61867 c 0,0 0.236236,2.22062 -0.992187,4.34673 0,0 -0.283482,1.18117 -0.188988,2.12611 0.09449,0.94494 -0.188988,2.59859 -0.47247,3.87426 -0.283482,1.27567 -0.755953,25.3244 -0.377976,30.1436 0.377976,4.81919 0.755952,15.96949 1.039434,17.10342 0,0 3.78493,-10.04452 6.724895,-18.86441 2.939964,-8.8199 5.34539,-25.32379 5.34539,-25.32379 l -6.280834,-2.60588 c 0,0 2.138157,-1.00226 3.674956,-1.13589 0,0 -0.581966,-2.5771 -1.668648,-4.60872 -1.086682,-2.03162 -6.803572,-5.05543 -6.803572,-5.05543 z"
             style="fill:#a3623a;fill-opacity:1;stroke:#000000;stroke-width:0.383592;stroke-linecap:butt;stroke-linejoin:miter;stroke-miterlimit:4;stroke-dasharray:none;stroke-opacity:1" />
          <path
             inkscape:connector-curvature="0"
             id="path1293-52-0-1-0"
             d="m -42.805802,-276.67336 c 0,0 3.307292,4.63021 4.535712,11.0558 1.228424,6.4256 0.472472,12.75671 1.984375,17.00894"
             style="fill:none;stroke:#000000;stroke-width:0.383592;stroke-linecap:butt;stroke-linejoin:miter;stroke-miterlimit:4;stroke-dasharray:none;stroke-opacity:1" />
        </g>
        <g
           style="display:inline;stroke-width:0.188453;stroke-miterlimit:4;stroke-dasharray:none"
           inkscape:label="Face outline &amp; turtle neck neck"
           id="layer2-3-5-2-2"
           transform="matrix(8.782644,0,0,8.782644,2595.6008,3081.2787)">
          <path
             sodipodi:nodetypes="cccc"
             inkscape:connector-curvature="0"
             id="path851-9-7-7-8"
             d="m -514.22908,-427.48307 c 0,0 -0.23212,-1.39272 -0.90527,-3.09878 l 0.5803,0.13926 c 0,0 0.74278,1.90338 0.32497,2.95952 z"
             style="display:inline;fill:#000000;fill-opacity:1;stroke:#000000;stroke-width:0.188453;stroke-linecap:butt;stroke-linejoin:miter;stroke-miterlimit:4;stroke-dasharray:none;stroke-opacity:1" />
          <path
             sodipodi:nodetypes="ccscccscccscscccscc"
             inkscape:connector-curvature="0"
             id="path1276-17-5-3-3"
             d="m -511.3989,-424.3177 c -0.11489,0 -1.29665,-0.21338 -2.79025,-1.14892 0,0 -0.14772,-0.18056 -0.21337,-0.42675 -0.0657,-0.2462 0.0657,-1.14893 0.0657,-1.14893 0,0 -0.30365,-0.15593 -0.64012,0.14772 0,0 -0.22978,0.36109 -0.21337,0.59087 0.0164,0.22979 -0.0164,1.47719 -0.1313,1.8547 -0.1149,0.3775 -0.11444,0.90034 -0.13765,1.38778 -0.0232,0.48745 -0.11606,1.60162 -0.20891,1.62483 -0.0928,0.0232 0.90527,1.02132 2.80863,1.29986 1.90337,0.27854 5.24587,0.1857 6.52252,-0.23211 1.27665,-0.41782 1.71768,-1.18381 1.71768,-1.18381 0,0 -0.11606,-0.97489 0.0928,-1.23022 0.20891,-0.25533 0.55709,-1.04454 0.5803,-1.48556 0.0232,-0.44102 -0.1857,-0.83562 -0.1857,-0.83562 l -1.71767,0.0928 c 0,0 -0.81242,0.51066 -1.46234,0.70796 -0.64994,0.1973 -2.13549,0.55709 -2.90148,0.31336 -0.76599,-0.24372 -1.18546,-0.328 -1.18546,-0.328 z"
             style="fill:#070707;fill-opacity:1;stroke:#000000;stroke-width:0.188453;stroke-linecap:butt;stroke-linejoin:miter;stroke-miterlimit:4;stroke-dasharray:none;stroke-opacity:1" />
          <path
             inkscape:connector-curvature="0"
             id="path854-54-6-5-5"
             d="m -514.63529,-430.53544 c 0,0 0.44102,1.49717 0.34818,2.7506 -0.0928,1.25345 -0.13183,2.41669 -0.099,2.49875 0.0328,0.0821 1.19817,0.96839 3.13493,1.41153 1.93676,0.44317 4.7106,-0.52522 5.23582,-1.19815 0.52522,-0.67294 -6.23703,-4.87473 -6.23703,-4.87473 z"
             style="fill:#cb8c6f;fill-opacity:1;stroke:#000000;stroke-width:0.188453;stroke-linecap:butt;stroke-linejoin:miter;stroke-miterlimit:4;stroke-dasharray:none;stroke-opacity:1" />
          <path
             sodipodi:nodetypes="cssccscscssscscsccsc"
             inkscape:connector-curvature="0"
             id="path842-92-4-4-9"
             d="m -513.13813,-429.49089 c 0,0 0.23212,1.3927 1.02132,1.90336 0.7892,0.51066 5.19945,2.78542 5.77974,2.87827 0.5803,0.0928 2.22834,0.16248 2.76221,-0.23211 0.53387,-0.39462 1.64804,-2.62294 1.69446,-2.85506 0.0464,-0.23212 0.76599,-1.48556 0.71957,-3.29609 -0.0464,-1.81051 -0.0464,-2.04264 0,-2.27475 0,0 0.18569,-0.74279 0.0696,-2.03104 -0.11606,-1.28825 0.40052,-2.75575 -0.22318,-3.82262 -0.6237,-1.06685 -1.49924,-2.33864 -3.23904,-2.73256 -1.7398,-0.39391 -2.78462,0.0736 -3.30984,0.20493 -0.45098,0.11274 -4.08088,4.1664 -5.17314,6.36045 -0.17982,0.36121 -0.24569,0.99947 -0.26538,1.21274 -0.66093,-1.55464 -3.00154,-2.41524 -2.26004,-1.39907 0.0424,0.058 0.81591,0.70263 0.73571,0.65769 0,0 -0.75137,-0.89022 -1.57203,-0.6112 -0.82066,0.27903 -0.83708,1.51002 -0.80425,1.80546 0.0328,0.29544 0.4924,1.26382 0.64012,1.62491 0.14772,0.36109 0.70836,0.90061 1.3815,1.43448 0.67314,0.53387 1.44452,0.27702 1.47934,0.27702"
             style="fill:#d69e85;fill-opacity:1;stroke:#000000;stroke-width:0.188453;stroke-linecap:butt;stroke-linejoin:miter;stroke-miterlimit:4;stroke-dasharray:none;stroke-opacity:1" />
        </g>
        <g
           style="display:inline;stroke-width:0.383592;stroke-miterlimit:4;stroke-dasharray:none"
           inkscape:label="Eyes white colour"
           id="layer11-6-1-0-8"
           transform="matrix(4.3147931,0,0,4.3147931,-1610.4135,574.76046)">
          <path
             inkscape:connector-curvature="0"
             id="path880-7-2-22-3-2-1"
             d="m -55.39307,-304.10384 c 0,0 -0.514215,-0.61705 -1.028425,-1.33696 -0.514213,-0.71988 -4.010852,-0.71988 -4.936434,0.41136 0,0 0.680709,0.49969 1.844238,0.76633 0,0 1.703913,0.57735 3.206804,0.11679 0,0 0.445943,-0.15745 0.913817,0.0425 z"
             style="display:inline;fill:#ffffff;fill-opacity:1;stroke:none;stroke-width:0.383592;stroke-linecap:butt;stroke-linejoin:miter;stroke-miterlimit:4;stroke-dasharray:none;stroke-opacity:1" />
          <path
             sodipodi:nodetypes="cccc"
             inkscape:connector-curvature="0"
             id="path886-6-2-5-3-1-7"
             d="m -49.695426,-302.73612 c 0,0 0.434311,-0.93543 2.104747,-0.90201 1.670433,0.0334 2.088044,1.30293 2.021225,1.50338 -0.06682,0.20045 -0.250564,0.46771 -1.26953,0.48443 0,0 -1.143234,-0.0138 -1.544834,-0.29733 -0.4016,-0.28349 -1.311608,-0.78847 -1.311608,-0.78847 z"
             style="display:inline;fill:#ffffff;fill-opacity:1;stroke:none;stroke-width:0.383592;stroke-linecap:butt;stroke-linejoin:miter;stroke-miterlimit:4;stroke-dasharray:none;stroke-opacity:1" />
        </g>
        <g
           style="display:inline;stroke-width:0.383592;stroke-miterlimit:4;stroke-dasharray:none"
           inkscape:label="Eyes"
           id="layer4-2-8-3-9"
           transform="matrix(4.3147931,0,0,4.3147931,-1610.4135,574.76046)">
          <path
             sodipodi:nodetypes="cccc"
             inkscape:connector-curvature="0"
             id="path880-84-9-2-5"
             d="m -55.427883,-304.2006 c 0,0 -0.501132,-0.60135 -1.002261,-1.30295 -0.501131,-0.70156 -3.908816,-0.70156 -4.810852,0.4009 0,0 0.521651,0.55785 1.65558,0.8177"
             style="fill:none;fill-opacity:1;stroke:#000000;stroke-width:0.383592;stroke-linecap:butt;stroke-linejoin:miter;stroke-miterlimit:4;stroke-dasharray:none;stroke-opacity:1" />
          <path
             sodipodi:nodetypes="ccccscc"
             inkscape:connector-curvature="0"
             id="path884-74-7-1-4"
             d="m -59.327868,-305.83073 c 0,0 -0.125879,1.05669 0.05787,1.2655 0.183747,0.20881 0.701582,0.69323 1.403164,0.29231 0.701583,-0.4009 0.258919,-1.41986 0.175398,-1.53678 -0.04221,-0.0591 -0.44975,-0.13201 -0.867362,-0.14021 -0.408713,-0.008 -0.762745,0.0651 -0.762745,0.0651 z"
             style="fill:#000000;fill-opacity:1;stroke:#000000;stroke-width:0.383592;stroke-linecap:butt;stroke-linejoin:miter;stroke-miterlimit:4;stroke-dasharray:none;stroke-opacity:1" />
          <path
             sodipodi:nodetypes="cccc"
             inkscape:connector-curvature="0"
             id="path886-65-0-2-3"
             d="m -49.645313,-302.78623 c 0,0 0.434311,-0.93543 2.104747,-0.90201 1.670434,0.0334 2.088044,1.30293 2.021226,1.50338 -0.06682,0.20045 -0.250565,0.46771 -1.26953,0.48443"
             style="fill:none;fill-opacity:1;stroke:#000000;stroke-width:0.383592;stroke-linecap:butt;stroke-linejoin:miter;stroke-miterlimit:4;stroke-dasharray:none;stroke-opacity:1" />
          <path
             sodipodi:nodetypes="ccscccc"
             inkscape:connector-curvature="0"
             id="path888-2-4-8-6"
             d="m -48.500352,-303.3611 c 0,0 -0.299194,0.5238 -0.08548,0.88727 0.213708,0.36344 0.555641,0.5131 0.673183,0.5131 0.11754,0 0.598385,0.0214 0.72661,-0.44897 0.128224,-0.47034 0.106855,-1.01553 0.106855,-1.01553 0,0 -0.70524,-0.29397 -1.35171,-0.10697 z"
             style="fill:#000000;fill-opacity:1;stroke:#000000;stroke-width:0.383592;stroke-linecap:butt;stroke-linejoin:miter;stroke-miterlimit:4;stroke-dasharray:none;stroke-opacity:1" />
        </g>
        <g
           style="display:inline;stroke-width:0.383592;stroke-miterlimit:4;stroke-dasharray:none"
           inkscape:label="Eye Line"
           id="layer5-3-7-6-2"
           transform="matrix(4.3147931,0,0,4.3147931,-1610.4135,574.76046)">
          <path
             sodipodi:nodetypes="cc"
             inkscape:connector-curvature="0"
             id="path891-0-0-9-6"
             d="m -48.910321,-303.88872 c 0,0 1.603616,-0.70157 3.207232,0.30067"
             style="fill:none;fill-opacity:1;stroke:#000000;stroke-width:0.383592;stroke-linecap:butt;stroke-linejoin:miter;stroke-miterlimit:4;stroke-dasharray:none;stroke-opacity:1" />
          <path
             inkscape:connector-curvature="0"
             id="path893-28-4-6-6"
             d="m -61.043152,-305.82478 c 0,0 1.653645,-0.94493 3.401784,-0.51969"
             style="fill:none;fill-opacity:1;stroke:#000000;stroke-width:0.383592;stroke-linecap:butt;stroke-linejoin:miter;stroke-miterlimit:4;stroke-dasharray:none;stroke-opacity:1" />
        </g>
        <g
           style="display:inline;stroke-width:0.383592;stroke-miterlimit:4;stroke-dasharray:none"
           inkscape:label="Nose"
           id="layer6-9-2-8-7"
           transform="matrix(4.3147931,0,0,4.3147931,-1610.4135,574.76046)">
          <path
             sodipodi:nodetypes="csc"
             inkscape:connector-curvature="0"
             id="path898-59-7-2-0"
             d="m -50.837798,-305.16332 c 0,0 -0.236233,1.7009 -0.236233,2.22062 0,0.51972 1.291881,2.60612 1.331022,4.17533"
             style="fill:none;fill-opacity:1;stroke:#000000;stroke-width:0.383592;stroke-linecap:butt;stroke-linejoin:miter;stroke-miterlimit:4;stroke-dasharray:none;stroke-opacity:1" />
          <path
             inkscape:connector-curvature="0"
             id="path900-6-9-1-9"
             d="m -55.751486,-298.50148 c 0,0 -0.283482,1.46465 0.850445,1.74815"
             style="fill:none;fill-opacity:1;stroke:#000000;stroke-width:0.383592;stroke-linecap:butt;stroke-linejoin:miter;stroke-miterlimit:4;stroke-dasharray:none;stroke-opacity:1" />
          <path
             inkscape:connector-curvature="0"
             id="path918-7-4-4-9"
             d="m -48.910321,-296.47197 c 0,0 -0.367496,0.60134 -1.202714,0.4009 0,0 1.336347,-1.83749 -0.501131,-0.735 0,0 -0.200453,0.66818 -1.703844,0.10023 0,0 0.400905,-0.56795 -0.334087,-0.80181 -0.734991,-0.23386 -1.637025,-0.56795 -1.670434,-0.16704 -0.03341,0.4009 0.634765,0.63476 0.634765,0.63476"
             style="fill:none;fill-opacity:1;stroke:#000000;stroke-width:0.383592;stroke-linecap:butt;stroke-linejoin:miter;stroke-miterlimit:4;stroke-dasharray:none;stroke-opacity:1" />
        </g>
        <g
           style="display:inline;stroke-width:0.383592;stroke-miterlimit:4;stroke-dasharray:none"
           inkscape:label="Mouth 1"
           id="layer10-5-6-1-1"
           transform="matrix(4.3147931,0,0,4.3147931,-1610.4135,574.76046)">
          <path
             inkscape:connector-curvature="0"
             id="path938-7-2-5-6"
             d="m -59.734738,-294.76813 c 0,0 0.100227,-2.77292 -1.469982,-3.14042 0,0 -1.870888,-1.33635 -2.706105,0.20045 -0.835218,1.5368 -1.236122,1.40316 -0.902035,3.04019 0.334087,1.63702 1.123872,4.52915 2.446789,4.71814 1.322917,0.18899 2.882068,-0.94494 3.732515,-0.85045 0.850446,0.0945 2.409598,0.33073 2.929315,-0.99219 0.519718,-1.32291 0.944941,-4.77195 0.188988,-4.67745 -0.755952,0.0945 -0.897693,1.41741 -1.606398,1.55915 -0.708706,0.14174 -1.133929,1.22842 -1.700893,0.89769 -0.566965,-0.33073 -0.912194,-0.75511 -0.912194,-0.75511 z"
             style="display:inline;fill:#c6866a;fill-opacity:1;stroke:none;stroke-width:0.383592;stroke-linecap:butt;stroke-linejoin:miter;stroke-miterlimit:4;stroke-dasharray:none;stroke-opacity:1" />
          <path
             sodipodi:nodetypes="ccccccccc"
             inkscape:connector-curvature="0"
             id="path943-2-0-5-0"
             d="m -57.048406,-292.3739 c 0,0 1.084306,-0.6233 2.052872,-1.14302 0.968563,-0.51972 2.89388,-1.004 3.673456,-0.31892 1.098398,-0.78062 1.270899,-0.0286 1.830821,0.70875 0.614212,0.85044 1.110305,1.24023 1.110305,1.57096 l 0.141741,0.37793 c 0,0 -0.07087,0.21262 -0.519717,-0.21261 -0.448847,-0.42522 -2.409598,-1.22842 -5.220796,-0.99218 -2.811198,0.23623 -3.068682,0.009 -3.068682,0.009 z"
             style="fill:#aa5a4f;fill-opacity:1;stroke:none;stroke-width:0.383592;stroke-linecap:butt;stroke-linejoin:miter;stroke-miterlimit:4;stroke-dasharray:none;stroke-opacity:1" />
          <path
             sodipodi:nodetypes="ccccccccc"
             id="path945-24-1-9-4"
             d="m -53.284991,-292.4426 c -0.323533,-1.9e-4 -0.661459,0.013 -1.01286,0.0424 -1.947957,0.1637 -2.238328,0.12563 -2.679053,0.10195 0.220943,0.0826 1.094701,0.13416 2.66776,0.80416 1.804067,0.76841 4.395876,0.81842 5.899267,0.45091 l 0.03837,-0.18946 c -0.0778,-0.0156 -0.397882,-0.19523 -0.588543,-0.37582 -0.39274,-0.37208 -2.060221,-0.83283 -4.32494,-0.83412 z"
             style="display:inline;fill:#c26d65;fill-opacity:1;stroke:none;stroke-width:0.383592;stroke-linecap:butt;stroke-linejoin:miter;stroke-miterlimit:4;stroke-dasharray:none;stroke-opacity:1"
             inkscape:connector-curvature="0" />
        </g>
        <g
           style="display:inline;stroke-width:0.383592;stroke-miterlimit:4;stroke-dasharray:none"
           inkscape:label="Mouth"
           id="layer9-7-3-9-8"
           transform="matrix(4.3147931,0,0,4.3147931,-1610.4135,574.76046)">
          <path
             inkscape:connector-curvature="0"
             id="path926-61-2-0-9"
             d="m -54.589801,-293.66564 c 0,0 1.536801,-0.66818 2.271792,-0.60137 0.734991,0.0668 1.135896,0.43431 1.135896,0.43431 0,0 1.169303,-0.73499 1.570207,0.40091"
             style="fill:none;fill-opacity:1;stroke:#000000;stroke-width:0.383592;stroke-linecap:butt;stroke-linejoin:miter;stroke-miterlimit:4;stroke-dasharray:none;stroke-opacity:1" />
          <path
             sodipodi:nodetypes="ccsc"
             inkscape:connector-curvature="0"
             id="path981-6-1-4-0"
             d="m -57.074403,-292.31211 c 0,0 1.322917,0.33073 2.83482,0 -5.07e-4,1.1e-4 2.627702,-0.43024 4.326999,0.21667 1.398066,0.53223 1.561119,0.89393 1.561119,0.89393"
             style="fill:none;fill-opacity:1;stroke:#000000;stroke-width:0.383592;stroke-linecap:butt;stroke-linejoin:miter;stroke-miterlimit:4;stroke-dasharray:none;stroke-opacity:1" />
          <path
             inkscape:connector-curvature="0"
             id="path928-6-8-9-6"
             d="m -54.050593,-291.13093 c 0,0 2.50409,0.37795 3.685267,0.33073"
             style="fill:none;fill-opacity:1;stroke:#000000;stroke-width:0.383592;stroke-linecap:butt;stroke-linejoin:miter;stroke-miterlimit:4;stroke-dasharray:none;stroke-opacity:1" />
        </g>
        <g
           style="display:inline;stroke-width:0.383592;stroke-miterlimit:4;stroke-dasharray:none"
           inkscape:label="Ear Lines"
           id="layer12-4-9-8-7"
           transform="matrix(4.3147931,0,0,4.3147931,-1610.4135,574.76046)">
          <path
             sodipodi:nodetypes="ccc"
             inkscape:connector-curvature="0"
             id="path1266-4-9-0-8"
             d="m -77.579034,-303.41861 c 0,0 0.534541,-2.53905 2.305201,-1.33633 0,0 1.071452,0.73497 1.639399,2.10473"
             style="display:inline;fill:none;stroke:#000000;stroke-width:0.383592;stroke-linecap:butt;stroke-linejoin:miter;stroke-miterlimit:4;stroke-dasharray:none;stroke-opacity:1" />
          <path
             sodipodi:nodetypes="ccc"
             inkscape:connector-curvature="0"
             id="path1268-37-6-0-7"
             d="m -71.895501,-301.44987 c 0,0 -0.668173,0.66818 -0.334087,1.67042 0.526947,0.78988 0.999954,0.92221 1.110592,1.94947"
             style="display:inline;fill:none;stroke:#000000;stroke-width:0.383592;stroke-linecap:butt;stroke-linejoin:miter;stroke-miterlimit:4;stroke-dasharray:none;stroke-opacity:1" />
          <path
             inkscape:connector-curvature="0"
             id="path1274-1-7-4-9"
             d="m -75.937953,-302.28508 c 0,0 -0.434314,1.40317 -0.06682,2.60586 0.367496,1.20271 1.135896,2.13817 1.77066,2.43885"
             style="fill:none;stroke:#000000;stroke-width:0.383592;stroke-linecap:butt;stroke-linejoin:miter;stroke-miterlimit:4;stroke-dasharray:none;stroke-opacity:1" />
        </g>
        <g
           style="display:inline;stroke-width:0.383592;stroke-miterlimit:4;stroke-dasharray:none"
           inkscape:label="Eyebrows"
           id="layer8-8-4-3-1"
           transform="matrix(4.3147931,0,0,4.3147931,-1610.4135,574.76046)">
          <path
             inkscape:connector-curvature="0"
             id="path921-60-6-9-5"
             d="m -59.861978,-308.89583 c 0,0 2.799934,0.12947 4.269917,1.0649 1.469982,0.93543 1.937705,1.33636 1.937705,1.33636 l 0.534538,-1.20272 c 0,0 -1.336347,-2.27179 -5.879928,-2.20498 -4.543584,0.0668 -0.862232,1.00644 -0.862232,1.00644 z"
             style="fill:#000000;fill-opacity:1;stroke:#000000;stroke-width:0.383592;stroke-linecap:butt;stroke-linejoin:miter;stroke-miterlimit:4;stroke-dasharray:none;stroke-opacity:1" />
          <path
             sodipodi:nodetypes="cccccc"
             inkscape:connector-curvature="0"
             id="path923-4-7-4-7"
             d="m -45.248564,-306.89475 c 0,0 -0.5338,-0.86715 -1.714977,-0.72541 0,0 -1.228423,0.18899 -2.55134,1.46466 l 0.236236,0.99219 c 0,0 2.582128,-1.74814 3.999538,-0.51972 z"
             style="fill:#000000;fill-opacity:1;stroke:#000000;stroke-width:0.383592;stroke-linecap:butt;stroke-linejoin:miter;stroke-miterlimit:4;stroke-dasharray:none;stroke-opacity:1" />
        </g>
        <g
           style="display:inline;stroke-width:0.383592;stroke-miterlimit:4;stroke-dasharray:none"
           inkscape:label="Front Hair"
           id="layer3-0-8-5-7"
           transform="matrix(4.3147931,0,0,4.3147931,-1610.4135,574.76046)">
          <path
             sodipodi:nodetypes="ccccc"
             inkscape:connector-curvature="0"
             id="path863-9-8-5-5"
             d="m -70.733545,-302.65804 1.823761,-0.30829 c 0,0 -0.295437,-3.29751 0.496094,-4.016 0.307105,-0.68509 -5.898265,1.49974 -5.898265,1.49974 0,0 3.309257,-0.96717 3.57841,2.82455 z"
             style="fill:#0f0f0f;fill-opacity:1;stroke:#000000;stroke-width:0.383592;stroke-linecap:butt;stroke-linejoin:miter;stroke-miterlimit:4;stroke-dasharray:none;stroke-opacity:1" />
          <path
             sodipodi:nodetypes="csccccsssscscc"
             inkscape:connector-curvature="0"
             id="path845-79-2-2-0"
             d="m -53.011159,-318.53423 c 0,0 -4.252233,-1.5119 -4.157739,2.36236 0.09449,3.87424 -3.118304,9.78014 -6.614583,9.87462 -3.496281,0.0945 -8.425979,0.38939 -10.50485,0.9564 0,0 -1.799963,-1.00341 -2.952563,0.38305 -0.217156,0.0334 -0.634765,-0.30067 -0.801808,-1.1526 -0.167044,-0.85192 -0.183748,-2.67269 0.217156,-4.22619 0.400905,-1.55351 0.584652,-4.14268 1.80407,-6.01357 1.219417,-1.87089 0.945955,-1.94783 2.93033,-3.55423 1.984375,-1.6064 6.11849,-4.06325 8.150112,-4.20499 2.031622,-0.14174 4.086867,-0.49609 6.921689,-0.0945 2.834821,0.4016 4.063244,0.35435 5.338913,1.34654 1.27567,0.99219 1.133929,4.22861 1.133929,4.22861 z"
             style="fill:#000000;fill-opacity:1;stroke:#000000;stroke-width:0.383592;stroke-linecap:butt;stroke-linejoin:miter;stroke-miterlimit:4;stroke-dasharray:none;stroke-opacity:1" />
        </g>
        <circle
           style="display:inline;fill:#cccccc;stroke-width:1.65512;stroke-linecap:round;stroke-miterlimit:4;stroke-dasharray:none"
           id="path1656-1-7-1-8"
           cx="-1920.4961"
           cy="-704.45337"
           r="1.4286439" />
        <circle
           style="display:inline;fill:#cccccc;stroke-width:1.65512;stroke-linecap:round;stroke-miterlimit:4;stroke-dasharray:none"
           id="path1656-7-1-6-0-9"
           cx="-1943.4055"
           cy="-730.45459"
           r="1.4286439" />
        <circle
           style="display:inline;fill:#cccccc;stroke-width:1.65512;stroke-linecap:round;stroke-miterlimit:4;stroke-dasharray:none"
           id="path1656-0-3-5-6-7"
           cx="-1927.3779"
           cy="-698.39557"
           r="1.4286439" />
        <path
           style="display:inline;fill:none;stroke:#cccccc;stroke-width:1.65512;stroke-linecap:butt;stroke-linejoin:miter;stroke-miterlimit:4;stroke-dasharray:none;stroke-opacity:1"
           d="m -1925.1393,-703.20272 c 0,0 -3.2143,0.71401 -2.0535,6.07179"
           id="path1837-4-7-8-4" />
      </g>
    </g>
  </g>
</svg>
